<?xml version="1.0" encoding="utf-8" standalone="no"?>
<!DOCTYPE svg PUBLIC "-//W3C//DTD SVG 1.1//EN"
  "http://www.w3.org/Graphics/SVG/1.1/DTD/svg11.dtd">
<!-- Created with matplotlib (https://matplotlib.org/) -->
<svg height="632.647969pt" version="1.1" viewBox="0 0 343.854835 632.647969" width="343.854835pt" xmlns="http://www.w3.org/2000/svg" xmlns:xlink="http://www.w3.org/1999/xlink">
 <defs>
  <style type="text/css">
*{stroke-linecap:butt;stroke-linejoin:round;}
  </style>
 </defs>
 <g id="figure_1">
  <g id="patch_1">
   <path d="M 0 632.647969 
L 343.854835 632.647969 
L 343.854835 0 
L 0 0 
z
" style="fill:#ffffff;"/>
  </g>
  <g id="axes_1">
   <g id="patch_2">
    <path d="M 60.448768 167.719375 
L 326.692609 167.719375 
L 326.692609 21.759375 
L 60.448768 21.759375 
z
" style="fill:#ffffff;"/>
   </g>
   <g id="matplotlib.axis_1">
    <g id="xtick_1">
     <g id="line2d_1">
      <defs>
       <path d="M 0 0 
L 0 3.5 
" id="m48867171f6" style="stroke:#000000;stroke-width:0.8;"/>
      </defs>
      <g>
       <use style="stroke:#000000;stroke-width:0.8;" x="61.33037" xlink:href="#m48867171f6" y="167.719375"/>
      </g>
     </g>
     <g id="text_1">
      <!-- 0 -->
      <defs>
       <path d="M 4.15625 35.296875 
Q 4.15625 48 6.765625 55.734375 
Q 9.375 63.484375 14.515625 67.671875 
Q 19.671875 71.875 27.484375 71.875 
Q 33.25 71.875 37.59375 69.546875 
Q 41.9375 67.234375 44.765625 62.859375 
Q 47.609375 58.5 49.21875 52.21875 
Q 50.828125 45.953125 50.828125 35.296875 
Q 50.828125 22.703125 48.234375 14.96875 
Q 45.65625 7.234375 40.5 3 
Q 35.359375 -1.21875 27.484375 -1.21875 
Q 17.140625 -1.21875 11.234375 6.203125 
Q 4.15625 15.140625 4.15625 35.296875 
z
M 13.1875 35.296875 
Q 13.1875 17.671875 17.3125 11.828125 
Q 21.4375 6 27.484375 6 
Q 33.546875 6 37.671875 11.859375 
Q 41.796875 17.71875 41.796875 35.296875 
Q 41.796875 52.984375 37.671875 58.78125 
Q 33.546875 64.59375 27.390625 64.59375 
Q 21.34375 64.59375 17.71875 59.46875 
Q 13.1875 52.9375 13.1875 35.296875 
z
" id="ArialMT-48"/>
      </defs>
      <g transform="translate(57.715761 184.024531)scale(0.13 -0.13)">
       <use xlink:href="#ArialMT-48"/>
      </g>
     </g>
    </g>
    <g id="xtick_2">
     <g id="line2d_2">
      <g>
       <use style="stroke:#000000;stroke-width:0.8;" x="149.490583" xlink:href="#m48867171f6" y="167.719375"/>
      </g>
     </g>
     <g id="text_2">
      <!-- 200 -->
      <defs>
       <path d="M 50.34375 8.453125 
L 50.34375 0 
L 3.03125 0 
Q 2.9375 3.171875 4.046875 6.109375 
Q 5.859375 10.9375 9.828125 15.625 
Q 13.8125 20.3125 21.34375 26.46875 
Q 33.015625 36.03125 37.109375 41.625 
Q 41.21875 47.21875 41.21875 52.203125 
Q 41.21875 57.421875 37.46875 61 
Q 33.734375 64.59375 27.734375 64.59375 
Q 21.390625 64.59375 17.578125 60.78125 
Q 13.765625 56.984375 13.71875 50.25 
L 4.6875 51.171875 
Q 5.609375 61.28125 11.65625 66.578125 
Q 17.71875 71.875 27.9375 71.875 
Q 38.234375 71.875 44.234375 66.15625 
Q 50.25 60.453125 50.25 52 
Q 50.25 47.703125 48.484375 43.546875 
Q 46.734375 39.40625 42.65625 34.8125 
Q 38.578125 30.21875 29.109375 22.21875 
Q 21.1875 15.578125 18.9375 13.203125 
Q 16.703125 10.84375 15.234375 8.453125 
z
" id="ArialMT-50"/>
      </defs>
      <g transform="translate(138.646754 184.024531)scale(0.13 -0.13)">
       <use xlink:href="#ArialMT-50"/>
       <use x="55.615234" xlink:href="#ArialMT-48"/>
       <use x="111.230469" xlink:href="#ArialMT-48"/>
      </g>
     </g>
    </g>
    <g id="xtick_3">
     <g id="line2d_3">
      <g>
       <use style="stroke:#000000;stroke-width:0.8;" x="237.650795" xlink:href="#m48867171f6" y="167.719375"/>
      </g>
     </g>
     <g id="text_3">
      <!-- 400 -->
      <defs>
       <path d="M 32.328125 0 
L 32.328125 17.140625 
L 1.265625 17.140625 
L 1.265625 25.203125 
L 33.9375 71.578125 
L 41.109375 71.578125 
L 41.109375 25.203125 
L 50.78125 25.203125 
L 50.78125 17.140625 
L 41.109375 17.140625 
L 41.109375 0 
z
M 32.328125 25.203125 
L 32.328125 57.46875 
L 9.90625 25.203125 
z
" id="ArialMT-52"/>
      </defs>
      <g transform="translate(226.806967 184.024531)scale(0.13 -0.13)">
       <use xlink:href="#ArialMT-52"/>
       <use x="55.615234" xlink:href="#ArialMT-48"/>
       <use x="111.230469" xlink:href="#ArialMT-48"/>
      </g>
     </g>
    </g>
    <g id="xtick_4">
     <g id="line2d_4">
      <g>
       <use style="stroke:#000000;stroke-width:0.8;" x="325.811007" xlink:href="#m48867171f6" y="167.719375"/>
      </g>
     </g>
     <g id="text_4">
      <!-- 600 -->
      <defs>
       <path d="M 49.75 54.046875 
L 41.015625 53.375 
Q 39.84375 58.546875 37.703125 60.890625 
Q 34.125 64.65625 28.90625 64.65625 
Q 24.703125 64.65625 21.53125 62.3125 
Q 17.390625 59.28125 14.984375 53.46875 
Q 12.59375 47.65625 12.5 36.921875 
Q 15.671875 41.75 20.265625 44.09375 
Q 24.859375 46.4375 29.890625 46.4375 
Q 38.671875 46.4375 44.84375 39.96875 
Q 51.03125 33.5 51.03125 23.25 
Q 51.03125 16.5 48.125 10.71875 
Q 45.21875 4.9375 40.140625 1.859375 
Q 35.0625 -1.21875 28.609375 -1.21875 
Q 17.625 -1.21875 10.6875 6.859375 
Q 3.765625 14.9375 3.765625 33.5 
Q 3.765625 54.25 11.421875 63.671875 
Q 18.109375 71.875 29.4375 71.875 
Q 37.890625 71.875 43.28125 67.140625 
Q 48.6875 62.40625 49.75 54.046875 
z
M 13.875 23.1875 
Q 13.875 18.65625 15.796875 14.5 
Q 17.71875 10.359375 21.1875 8.171875 
Q 24.65625 6 28.46875 6 
Q 34.03125 6 38.03125 10.484375 
Q 42.046875 14.984375 42.046875 22.703125 
Q 42.046875 30.125 38.078125 34.390625 
Q 34.125 38.671875 28.125 38.671875 
Q 22.171875 38.671875 18.015625 34.390625 
Q 13.875 30.125 13.875 23.1875 
z
" id="ArialMT-54"/>
      </defs>
      <g transform="translate(314.967179 184.024531)scale(0.13 -0.13)">
       <use xlink:href="#ArialMT-54"/>
       <use x="55.615234" xlink:href="#ArialMT-48"/>
       <use x="111.230469" xlink:href="#ArialMT-48"/>
      </g>
     </g>
    </g>
    <g id="text_5">
     <!-- Isothermal holding (partitioning) time (s) -->
     <defs>
      <path d="M 9.328125 0 
L 9.328125 71.578125 
L 18.796875 71.578125 
L 18.796875 0 
z
" id="ArialMT-73"/>
      <path d="M 3.078125 15.484375 
L 11.765625 16.84375 
Q 12.5 11.625 15.84375 8.84375 
Q 19.1875 6.0625 25.203125 6.0625 
Q 31.25 6.0625 34.171875 8.515625 
Q 37.109375 10.984375 37.109375 14.3125 
Q 37.109375 17.28125 34.515625 19 
Q 32.71875 20.171875 25.53125 21.96875 
Q 15.875 24.421875 12.140625 26.203125 
Q 8.40625 27.984375 6.46875 31.125 
Q 4.546875 34.28125 4.546875 38.09375 
Q 4.546875 41.546875 6.125 44.5 
Q 7.71875 47.46875 10.453125 49.421875 
Q 12.5 50.921875 16.03125 51.96875 
Q 19.578125 53.03125 23.640625 53.03125 
Q 29.734375 53.03125 34.34375 51.265625 
Q 38.96875 49.515625 41.15625 46.5 
Q 43.359375 43.5 44.1875 38.484375 
L 35.59375 37.3125 
Q 35.015625 41.3125 32.203125 43.546875 
Q 29.390625 45.796875 24.265625 45.796875 
Q 18.21875 45.796875 15.625 43.796875 
Q 13.03125 41.796875 13.03125 39.109375 
Q 13.03125 37.40625 14.109375 36.03125 
Q 15.1875 34.625 17.484375 33.6875 
Q 18.796875 33.203125 25.25 31.453125 
Q 34.578125 28.953125 38.25 27.359375 
Q 41.9375 25.78125 44.03125 22.75 
Q 46.140625 19.734375 46.140625 15.234375 
Q 46.140625 10.84375 43.578125 6.953125 
Q 41.015625 3.078125 36.171875 0.953125 
Q 31.34375 -1.171875 25.25 -1.171875 
Q 15.140625 -1.171875 9.84375 3.03125 
Q 4.546875 7.234375 3.078125 15.484375 
z
" id="ArialMT-115"/>
      <path d="M 3.328125 25.921875 
Q 3.328125 40.328125 11.328125 47.265625 
Q 18.015625 53.03125 27.640625 53.03125 
Q 38.328125 53.03125 45.109375 46.015625 
Q 51.90625 39.015625 51.90625 26.65625 
Q 51.90625 16.65625 48.90625 10.90625 
Q 45.90625 5.171875 40.15625 2 
Q 34.421875 -1.171875 27.640625 -1.171875 
Q 16.75 -1.171875 10.03125 5.8125 
Q 3.328125 12.796875 3.328125 25.921875 
z
M 12.359375 25.921875 
Q 12.359375 15.96875 16.703125 11.015625 
Q 21.046875 6.0625 27.640625 6.0625 
Q 34.1875 6.0625 38.53125 11.03125 
Q 42.875 16.015625 42.875 26.21875 
Q 42.875 35.84375 38.5 40.796875 
Q 34.125 45.75 27.640625 45.75 
Q 21.046875 45.75 16.703125 40.8125 
Q 12.359375 35.890625 12.359375 25.921875 
z
" id="ArialMT-111"/>
      <path d="M 25.78125 7.859375 
L 27.046875 0.09375 
Q 23.34375 -0.6875 20.40625 -0.6875 
Q 15.625 -0.6875 12.984375 0.828125 
Q 10.359375 2.34375 9.28125 4.8125 
Q 8.203125 7.28125 8.203125 15.1875 
L 8.203125 45.015625 
L 1.765625 45.015625 
L 1.765625 51.859375 
L 8.203125 51.859375 
L 8.203125 64.703125 
L 16.9375 69.96875 
L 16.9375 51.859375 
L 25.78125 51.859375 
L 25.78125 45.015625 
L 16.9375 45.015625 
L 16.9375 14.703125 
Q 16.9375 10.9375 17.40625 9.859375 
Q 17.875 8.796875 18.921875 8.15625 
Q 19.96875 7.515625 21.921875 7.515625 
Q 23.390625 7.515625 25.78125 7.859375 
z
" id="ArialMT-116"/>
      <path d="M 6.59375 0 
L 6.59375 71.578125 
L 15.375 71.578125 
L 15.375 45.90625 
Q 21.53125 53.03125 30.90625 53.03125 
Q 36.671875 53.03125 40.921875 50.75 
Q 45.171875 48.484375 47 44.484375 
Q 48.828125 40.484375 48.828125 32.859375 
L 48.828125 0 
L 40.046875 0 
L 40.046875 32.859375 
Q 40.046875 39.453125 37.1875 42.453125 
Q 34.328125 45.453125 29.109375 45.453125 
Q 25.203125 45.453125 21.75 43.421875 
Q 18.3125 41.40625 16.84375 37.9375 
Q 15.375 34.46875 15.375 28.375 
L 15.375 0 
z
" id="ArialMT-104"/>
      <path d="M 42.09375 16.703125 
L 51.171875 15.578125 
Q 49.03125 7.625 43.21875 3.21875 
Q 37.40625 -1.171875 28.375 -1.171875 
Q 17 -1.171875 10.328125 5.828125 
Q 3.65625 12.84375 3.65625 25.484375 
Q 3.65625 38.578125 10.390625 45.796875 
Q 17.140625 53.03125 27.875 53.03125 
Q 38.28125 53.03125 44.875 45.953125 
Q 51.46875 38.875 51.46875 26.03125 
Q 51.46875 25.25 51.421875 23.6875 
L 12.75 23.6875 
Q 13.234375 15.140625 17.578125 10.59375 
Q 21.921875 6.0625 28.421875 6.0625 
Q 33.25 6.0625 36.671875 8.59375 
Q 40.09375 11.140625 42.09375 16.703125 
z
M 13.234375 30.90625 
L 42.1875 30.90625 
Q 41.609375 37.453125 38.875 40.71875 
Q 34.671875 45.796875 27.984375 45.796875 
Q 21.921875 45.796875 17.796875 41.75 
Q 13.671875 37.703125 13.234375 30.90625 
z
" id="ArialMT-101"/>
      <path d="M 6.5 0 
L 6.5 51.859375 
L 14.40625 51.859375 
L 14.40625 44 
Q 17.4375 49.515625 20 51.265625 
Q 22.5625 53.03125 25.640625 53.03125 
Q 30.078125 53.03125 34.671875 50.203125 
L 31.640625 42.046875 
Q 28.421875 43.953125 25.203125 43.953125 
Q 22.3125 43.953125 20.015625 42.21875 
Q 17.71875 40.484375 16.75 37.40625 
Q 15.28125 32.71875 15.28125 27.15625 
L 15.28125 0 
z
" id="ArialMT-114"/>
      <path d="M 6.59375 0 
L 6.59375 51.859375 
L 14.453125 51.859375 
L 14.453125 44.578125 
Q 16.890625 48.390625 20.9375 50.703125 
Q 25 53.03125 30.171875 53.03125 
Q 35.9375 53.03125 39.625 50.640625 
Q 43.3125 48.25 44.828125 43.953125 
Q 50.984375 53.03125 60.84375 53.03125 
Q 68.5625 53.03125 72.703125 48.75 
Q 76.859375 44.484375 76.859375 35.59375 
L 76.859375 0 
L 68.109375 0 
L 68.109375 32.671875 
Q 68.109375 37.9375 67.25 40.25 
Q 66.40625 42.578125 64.15625 43.984375 
Q 61.921875 45.40625 58.890625 45.40625 
Q 53.421875 45.40625 49.796875 41.765625 
Q 46.1875 38.140625 46.1875 30.125 
L 46.1875 0 
L 37.40625 0 
L 37.40625 33.6875 
Q 37.40625 39.546875 35.25 42.46875 
Q 33.109375 45.40625 28.21875 45.40625 
Q 24.515625 45.40625 21.359375 43.453125 
Q 18.21875 41.5 16.796875 37.734375 
Q 15.375 33.984375 15.375 26.90625 
L 15.375 0 
z
" id="ArialMT-109"/>
      <path d="M 40.4375 6.390625 
Q 35.546875 2.25 31.03125 0.53125 
Q 26.515625 -1.171875 21.34375 -1.171875 
Q 12.796875 -1.171875 8.203125 3 
Q 3.609375 7.171875 3.609375 13.671875 
Q 3.609375 17.484375 5.34375 20.625 
Q 7.078125 23.78125 9.890625 25.6875 
Q 12.703125 27.59375 16.21875 28.5625 
Q 18.796875 29.25 24.03125 29.890625 
Q 34.671875 31.15625 39.703125 32.90625 
Q 39.75 34.71875 39.75 35.203125 
Q 39.75 40.578125 37.25 42.78125 
Q 33.890625 45.75 27.25 45.75 
Q 21.046875 45.75 18.09375 43.578125 
Q 15.140625 41.40625 13.71875 35.890625 
L 5.125 37.0625 
Q 6.296875 42.578125 8.984375 45.96875 
Q 11.671875 49.359375 16.75 51.1875 
Q 21.828125 53.03125 28.515625 53.03125 
Q 35.15625 53.03125 39.296875 51.46875 
Q 43.453125 49.90625 45.40625 47.53125 
Q 47.359375 45.171875 48.140625 41.546875 
Q 48.578125 39.3125 48.578125 33.453125 
L 48.578125 21.734375 
Q 48.578125 9.46875 49.140625 6.21875 
Q 49.703125 2.984375 51.375 0 
L 42.1875 0 
Q 40.828125 2.734375 40.4375 6.390625 
z
M 39.703125 26.03125 
Q 34.90625 24.078125 25.34375 22.703125 
Q 19.921875 21.921875 17.671875 20.9375 
Q 15.4375 19.96875 14.203125 18.09375 
Q 12.984375 16.21875 12.984375 13.921875 
Q 12.984375 10.40625 15.640625 8.0625 
Q 18.3125 5.71875 23.4375 5.71875 
Q 28.515625 5.71875 32.46875 7.9375 
Q 36.421875 10.15625 38.28125 14.015625 
Q 39.703125 17 39.703125 22.796875 
z
" id="ArialMT-97"/>
      <path d="M 6.390625 0 
L 6.390625 71.578125 
L 15.1875 71.578125 
L 15.1875 0 
z
" id="ArialMT-108"/>
      <path id="ArialMT-32"/>
      <path d="M 40.234375 0 
L 40.234375 6.546875 
Q 35.296875 -1.171875 25.734375 -1.171875 
Q 19.53125 -1.171875 14.328125 2.25 
Q 9.125 5.671875 6.265625 11.796875 
Q 3.421875 17.921875 3.421875 25.875 
Q 3.421875 33.640625 6 39.96875 
Q 8.59375 46.296875 13.765625 49.65625 
Q 18.953125 53.03125 25.34375 53.03125 
Q 30.03125 53.03125 33.6875 51.046875 
Q 37.359375 49.078125 39.65625 45.90625 
L 39.65625 71.578125 
L 48.390625 71.578125 
L 48.390625 0 
z
M 12.453125 25.875 
Q 12.453125 15.921875 16.640625 10.984375 
Q 20.84375 6.0625 26.5625 6.0625 
Q 32.328125 6.0625 36.34375 10.765625 
Q 40.375 15.484375 40.375 25.140625 
Q 40.375 35.796875 36.265625 40.765625 
Q 32.171875 45.75 26.171875 45.75 
Q 20.3125 45.75 16.375 40.96875 
Q 12.453125 36.1875 12.453125 25.875 
z
" id="ArialMT-100"/>
      <path d="M 6.640625 61.46875 
L 6.640625 71.578125 
L 15.4375 71.578125 
L 15.4375 61.46875 
z
M 6.640625 0 
L 6.640625 51.859375 
L 15.4375 51.859375 
L 15.4375 0 
z
" id="ArialMT-105"/>
      <path d="M 6.59375 0 
L 6.59375 51.859375 
L 14.5 51.859375 
L 14.5 44.484375 
Q 20.21875 53.03125 31 53.03125 
Q 35.6875 53.03125 39.625 51.34375 
Q 43.5625 49.65625 45.515625 46.921875 
Q 47.46875 44.1875 48.25 40.4375 
Q 48.734375 37.984375 48.734375 31.890625 
L 48.734375 0 
L 39.9375 0 
L 39.9375 31.546875 
Q 39.9375 36.921875 38.90625 39.578125 
Q 37.890625 42.234375 35.28125 43.8125 
Q 32.671875 45.40625 29.15625 45.40625 
Q 23.53125 45.40625 19.453125 41.84375 
Q 15.375 38.28125 15.375 28.328125 
L 15.375 0 
z
" id="ArialMT-110"/>
      <path d="M 4.984375 -4.296875 
L 13.53125 -5.5625 
Q 14.0625 -9.515625 16.5 -11.328125 
Q 19.78125 -13.765625 25.4375 -13.765625 
Q 31.546875 -13.765625 34.859375 -11.328125 
Q 38.1875 -8.890625 39.359375 -4.5 
Q 40.046875 -1.8125 39.984375 6.78125 
Q 34.234375 0 25.640625 0 
Q 14.9375 0 9.078125 7.71875 
Q 3.21875 15.4375 3.21875 26.21875 
Q 3.21875 33.640625 5.90625 39.90625 
Q 8.59375 46.1875 13.6875 49.609375 
Q 18.796875 53.03125 25.6875 53.03125 
Q 34.859375 53.03125 40.828125 45.609375 
L 40.828125 51.859375 
L 48.921875 51.859375 
L 48.921875 7.03125 
Q 48.921875 -5.078125 46.453125 -10.125 
Q 44 -15.1875 38.640625 -18.109375 
Q 33.296875 -21.046875 25.484375 -21.046875 
Q 16.21875 -21.046875 10.5 -16.875 
Q 4.78125 -12.703125 4.984375 -4.296875 
z
M 12.25 26.859375 
Q 12.25 16.65625 16.296875 11.96875 
Q 20.359375 7.28125 26.46875 7.28125 
Q 32.515625 7.28125 36.609375 11.9375 
Q 40.71875 16.609375 40.71875 26.5625 
Q 40.71875 36.078125 36.5 40.90625 
Q 32.28125 45.75 26.3125 45.75 
Q 20.453125 45.75 16.34375 40.984375 
Q 12.25 36.234375 12.25 26.859375 
z
" id="ArialMT-103"/>
      <path d="M 23.390625 -21.046875 
Q 16.109375 -11.859375 11.078125 0.4375 
Q 6.0625 12.75 6.0625 25.921875 
Q 6.0625 37.546875 9.8125 48.1875 
Q 14.203125 60.546875 23.390625 72.796875 
L 29.6875 72.796875 
Q 23.78125 62.640625 21.875 58.296875 
Q 18.890625 51.5625 17.1875 44.234375 
Q 15.09375 35.109375 15.09375 25.875 
Q 15.09375 2.390625 29.6875 -21.046875 
z
" id="ArialMT-40"/>
      <path d="M 6.59375 -19.875 
L 6.59375 51.859375 
L 14.59375 51.859375 
L 14.59375 45.125 
Q 17.4375 49.078125 21 51.046875 
Q 24.5625 53.03125 29.640625 53.03125 
Q 36.28125 53.03125 41.359375 49.609375 
Q 46.4375 46.1875 49.015625 39.953125 
Q 51.609375 33.734375 51.609375 26.3125 
Q 51.609375 18.359375 48.75 11.984375 
Q 45.90625 5.609375 40.453125 2.21875 
Q 35.015625 -1.171875 29 -1.171875 
Q 24.609375 -1.171875 21.109375 0.6875 
Q 17.625 2.546875 15.375 5.375 
L 15.375 -19.875 
z
M 14.546875 25.640625 
Q 14.546875 15.625 18.59375 10.84375 
Q 22.65625 6.0625 28.421875 6.0625 
Q 34.28125 6.0625 38.453125 11.015625 
Q 42.625 15.96875 42.625 26.375 
Q 42.625 36.28125 38.546875 41.203125 
Q 34.46875 46.140625 28.8125 46.140625 
Q 23.1875 46.140625 18.859375 40.890625 
Q 14.546875 35.640625 14.546875 25.640625 
z
" id="ArialMT-112"/>
      <path d="M 12.359375 -21.046875 
L 6.0625 -21.046875 
Q 20.65625 2.390625 20.65625 25.875 
Q 20.65625 35.0625 18.5625 44.09375 
Q 16.890625 51.421875 13.921875 58.15625 
Q 12.015625 62.546875 6.0625 72.796875 
L 12.359375 72.796875 
Q 21.53125 60.546875 25.921875 48.1875 
Q 29.6875 37.546875 29.6875 25.921875 
Q 29.6875 12.75 24.625 0.4375 
Q 19.578125 -11.859375 12.359375 -21.046875 
z
" id="ArialMT-41"/>
     </defs>
     <g transform="translate(79.061001 200.071875)scale(0.13 -0.13)">
      <use xlink:href="#ArialMT-73"/>
      <use x="27.783203" xlink:href="#ArialMT-115"/>
      <use x="77.783203" xlink:href="#ArialMT-111"/>
      <use x="133.398438" xlink:href="#ArialMT-116"/>
      <use x="161.181641" xlink:href="#ArialMT-104"/>
      <use x="216.796875" xlink:href="#ArialMT-101"/>
      <use x="272.412109" xlink:href="#ArialMT-114"/>
      <use x="305.712891" xlink:href="#ArialMT-109"/>
      <use x="389.013672" xlink:href="#ArialMT-97"/>
      <use x="444.628906" xlink:href="#ArialMT-108"/>
      <use x="466.845703" xlink:href="#ArialMT-32"/>
      <use x="494.628906" xlink:href="#ArialMT-104"/>
      <use x="550.244141" xlink:href="#ArialMT-111"/>
      <use x="605.859375" xlink:href="#ArialMT-108"/>
      <use x="628.076172" xlink:href="#ArialMT-100"/>
      <use x="683.691406" xlink:href="#ArialMT-105"/>
      <use x="705.908203" xlink:href="#ArialMT-110"/>
      <use x="761.523438" xlink:href="#ArialMT-103"/>
      <use x="817.138672" xlink:href="#ArialMT-32"/>
      <use x="844.921875" xlink:href="#ArialMT-40"/>
      <use x="878.222656" xlink:href="#ArialMT-112"/>
      <use x="933.837891" xlink:href="#ArialMT-97"/>
      <use x="989.453125" xlink:href="#ArialMT-114"/>
      <use x="1022.753906" xlink:href="#ArialMT-116"/>
      <use x="1050.537109" xlink:href="#ArialMT-105"/>
      <use x="1072.753906" xlink:href="#ArialMT-116"/>
      <use x="1100.537109" xlink:href="#ArialMT-105"/>
      <use x="1122.753906" xlink:href="#ArialMT-111"/>
      <use x="1178.369141" xlink:href="#ArialMT-110"/>
      <use x="1233.984375" xlink:href="#ArialMT-105"/>
      <use x="1256.201172" xlink:href="#ArialMT-110"/>
      <use x="1311.816406" xlink:href="#ArialMT-103"/>
      <use x="1367.431641" xlink:href="#ArialMT-41"/>
      <use x="1400.732422" xlink:href="#ArialMT-32"/>
      <use x="1428.515625" xlink:href="#ArialMT-116"/>
      <use x="1456.298828" xlink:href="#ArialMT-105"/>
      <use x="1478.515625" xlink:href="#ArialMT-109"/>
      <use x="1561.816406" xlink:href="#ArialMT-101"/>
      <use x="1617.431641" xlink:href="#ArialMT-32"/>
      <use x="1645.214844" xlink:href="#ArialMT-40"/>
      <use x="1678.515625" xlink:href="#ArialMT-115"/>
      <use x="1728.515625" xlink:href="#ArialMT-41"/>
     </g>
    </g>
   </g>
   <g id="matplotlib.axis_2">
    <g id="ytick_1">
     <g id="line2d_5">
      <defs>
       <path d="M 0 0 
L -3.5 0 
" id="m0faeaca06c" style="stroke:#000000;stroke-width:0.8;"/>
      </defs>
      <g>
       <use style="stroke:#000000;stroke-width:0.8;" x="60.448768" xlink:href="#m0faeaca06c" y="166.613617"/>
      </g>
     </g>
     <g id="text_6">
      <!-- 0.0 -->
      <defs>
       <path d="M 9.078125 0 
L 9.078125 10.015625 
L 19.09375 10.015625 
L 19.09375 0 
z
" id="ArialMT-46"/>
      </defs>
      <g transform="translate(35.378768 171.266196)scale(0.13 -0.13)">
       <use xlink:href="#ArialMT-48"/>
       <use x="55.615234" xlink:href="#ArialMT-46"/>
       <use x="83.398438" xlink:href="#ArialMT-48"/>
      </g>
     </g>
    </g>
    <g id="ytick_2">
     <g id="line2d_6">
      <g>
       <use style="stroke:#000000;stroke-width:0.8;" x="60.448768" xlink:href="#m0faeaca06c" y="111.325739"/>
      </g>
     </g>
     <g id="text_7">
      <!-- 0.5 -->
      <defs>
       <path d="M 4.15625 18.75 
L 13.375 19.53125 
Q 14.40625 12.796875 18.140625 9.390625 
Q 21.875 6 27.15625 6 
Q 33.5 6 37.890625 10.78125 
Q 42.28125 15.578125 42.28125 23.484375 
Q 42.28125 31 38.0625 35.34375 
Q 33.84375 39.703125 27 39.703125 
Q 22.75 39.703125 19.328125 37.765625 
Q 15.921875 35.84375 13.96875 32.765625 
L 5.71875 33.84375 
L 12.640625 70.609375 
L 48.25 70.609375 
L 48.25 62.203125 
L 19.671875 62.203125 
L 15.828125 42.96875 
Q 22.265625 47.46875 29.34375 47.46875 
Q 38.71875 47.46875 45.15625 40.96875 
Q 51.609375 34.46875 51.609375 24.265625 
Q 51.609375 14.546875 45.953125 7.46875 
Q 39.0625 -1.21875 27.15625 -1.21875 
Q 17.390625 -1.21875 11.203125 4.25 
Q 5.03125 9.71875 4.15625 18.75 
z
" id="ArialMT-53"/>
      </defs>
      <g transform="translate(35.378768 115.978317)scale(0.13 -0.13)">
       <use xlink:href="#ArialMT-48"/>
       <use x="55.615234" xlink:href="#ArialMT-46"/>
       <use x="83.398438" xlink:href="#ArialMT-53"/>
      </g>
     </g>
    </g>
    <g id="ytick_3">
     <g id="line2d_7">
      <g>
       <use style="stroke:#000000;stroke-width:0.8;" x="60.448768" xlink:href="#m0faeaca06c" y="56.03786"/>
      </g>
     </g>
     <g id="text_8">
      <!-- 1.0 -->
      <defs>
       <path d="M 37.25 0 
L 28.46875 0 
L 28.46875 56 
Q 25.296875 52.984375 20.140625 49.953125 
Q 14.984375 46.921875 10.890625 45.40625 
L 10.890625 53.90625 
Q 18.265625 57.375 23.78125 62.296875 
Q 29.296875 67.234375 31.59375 71.875 
L 37.25 71.875 
z
" id="ArialMT-49"/>
      </defs>
      <g transform="translate(35.378768 60.690438)scale(0.13 -0.13)">
       <use xlink:href="#ArialMT-49"/>
       <use x="55.615234" xlink:href="#ArialMT-46"/>
       <use x="83.398438" xlink:href="#ArialMT-48"/>
      </g>
     </g>
    </g>
    <g id="text_9">
     <!-- $\overline{c^{\alpha' + \theta}}$ (wt.%) -->
     <defs>
      <path d="M 35 10.703125 
L 36.59375 9.703125 
Q 32 3.90625 27.640625 1.40625 
Q 23.296875 -1.09375 17.703125 -1.09375 
Q 10.59375 -1.09375 6.796875 2.796875 
Q 3 6.703125 3 14.296875 
Q 3 21 6.390625 27.25 
Q 9.796875 33.5 15.296875 38 
Q 23 44.09375 32 44.09375 
Q 36.59375 44.09375 39.546875 41.796875 
Q 42.5 39.5 42.5 36 
Q 42.5 34 41.09375 32.59375 
Q 39.703125 31.203125 37.703125 31.203125 
Q 35.703125 31.203125 34.75 32.34375 
Q 33.796875 33.5 33.796875 35.203125 
Q 33.796875 36.09375 34.546875 37.546875 
Q 35.296875 39 35.296875 40 
Q 35.296875 42 31.59375 42 
Q 25.296875 42 20.703125 37.203125 
Q 11.59375 27.59375 11.59375 13.90625 
Q 11.59375 8.5 13.890625 5.5 
Q 16.203125 2.5 20.5 2.5 
Q 24.40625 2.5 27.59375 4.390625 
Q 30.796875 6.296875 35 10.703125 
z
" id="STIXGeneral-Italic-99"/>
      <path d="M 54.90625 42.796875 
L 40.703125 16.703125 
L 40.703125 14.90625 
Q 40.703125 11 41.59375 8 
Q 42.5 5 44.09375 5 
Q 46.40625 5 49.203125 12.40625 
L 50.796875 11.703125 
Q 47.09375 -0.90625 40.703125 -0.90625 
Q 35.796875 -0.90625 35.5 9.59375 
Q 26.703125 -1.09375 16.09375 -1.09375 
Q 9.203125 -1.09375 5.953125 3.09375 
Q 2.703125 7.296875 2.703125 14.09375 
Q 2.703125 20.203125 5.140625 26.140625 
Q 7.59375 32.09375 11.796875 36.40625 
Q 15.203125 39.796875 19.84375 41.9375 
Q 24.5 44.09375 29.09375 44.09375 
Q 35.09375 44.09375 38.390625 40.546875 
Q 41.703125 37 41.703125 32.203125 
L 46.296875 42.796875 
z
M 35.90625 27.203125 
Q 35.90625 42 28.203125 42 
Q 23 42 16.953125 32.796875 
Q 10.90625 23.59375 10.90625 12.5 
Q 10.90625 7.703125 12.59375 4.34375 
Q 14.296875 1 17.796875 1 
Q 25.09375 1 34.296875 20.09375 
Q 34.40625 20.703125 34.84375 22.046875 
Q 35.296875 23.40625 35.59375 24.703125 
Q 35.90625 26 35.90625 27.203125 
z
" id="STIXGeneral-Italic-945"/>
      <path d="M 7.5 41.09375 
L 14.203125 63.203125 
Q 14.59375 64.703125 15 65.546875 
Q 15.40625 66.40625 16.296875 67.09375 
Q 17.203125 67.796875 18.59375 67.796875 
Q 19.90625 67.796875 20.65625 66.84375 
Q 21.40625 65.90625 21.40625 64.5 
Q 21.40625 63.40625 20 60.59375 
L 9.40625 40.203125 
z
" id="STIXGeneral-Regular-8242"/>
      <path d="M 63.59375 22 
L 37.5 22 
L 37.5 -4.09375 
L 30.90625 -4.09375 
L 30.90625 22 
L 4.796875 22 
L 4.796875 28.59375 
L 30.90625 28.59375 
L 30.90625 54.703125 
L 37.5 54.703125 
L 37.5 28.59375 
L 63.59375 28.59375 
z
" id="STIXGeneral-Regular-43"/>
      <path d="M 49.40625 51.09375 
Q 49.40625 39.59375 45.703125 29.09375 
Q 42 18.59375 36 10.59375 
Q 27.203125 -1.09375 15.5 -1.09375 
Q 9.5 -1.09375 6.09375 3.5 
Q 2.703125 8.09375 2.703125 16.09375 
Q 2.703125 31.203125 9.25 43.953125 
Q 15.796875 56.703125 24.90625 63.59375 
Q 30.5 67.796875 37.09375 67.796875 
Q 42.703125 67.796875 46.046875 63.6875 
Q 49.40625 59.59375 49.40625 51.09375 
z
M 14.703125 34.703125 
L 38 34.703125 
Q 41 44.90625 41 55.203125 
Q 41 65.703125 35.703125 65.703125 
Q 31.703125 65.703125 27 59.59375 
Q 22.296875 53.5 19.25 46.75 
Q 16.203125 40 14.703125 34.703125 
z
M 37.296875 31.5 
L 14 31.5 
Q 11.09375 23.90625 11.09375 15 
Q 11.09375 1 16.703125 1 
Q 20.09375 1 23.59375 4.296875 
Q 27.09375 7.59375 29.75 12.59375 
Q 32.40625 17.59375 34.34375 22.5 
Q 36.296875 27.40625 37.296875 31.5 
z
" id="STIXGeneral-Italic-952"/>
      <path d="M 16.15625 0 
L 0.296875 51.859375 
L 9.375 51.859375 
L 17.625 21.921875 
L 20.703125 10.796875 
Q 20.90625 11.625 23.390625 21.484375 
L 31.640625 51.859375 
L 40.671875 51.859375 
L 48.4375 21.78125 
L 51.03125 11.859375 
L 54 21.875 
L 62.890625 51.859375 
L 71.4375 51.859375 
L 55.21875 0 
L 46.09375 0 
L 37.84375 31.0625 
L 35.84375 39.890625 
L 25.34375 0 
z
" id="ArialMT-119"/>
      <path d="M 5.8125 54.390625 
Q 5.8125 62.0625 9.671875 67.421875 
Q 13.53125 72.796875 20.84375 72.796875 
Q 27.59375 72.796875 32 67.984375 
Q 36.421875 63.1875 36.421875 53.859375 
Q 36.421875 44.78125 31.953125 39.875 
Q 27.484375 34.96875 20.953125 34.96875 
Q 14.453125 34.96875 10.125 39.796875 
Q 5.8125 44.625 5.8125 54.390625 
z
M 21.09375 66.75 
Q 17.828125 66.75 15.65625 63.90625 
Q 13.484375 61.078125 13.484375 53.515625 
Q 13.484375 46.625 15.671875 43.8125 
Q 17.875 41.015625 21.09375 41.015625 
Q 24.421875 41.015625 26.59375 43.84375 
Q 28.765625 46.6875 28.765625 54.203125 
Q 28.765625 61.140625 26.5625 63.9375 
Q 24.359375 66.75 21.09375 66.75 
z
M 21.140625 -2.640625 
L 60.296875 72.796875 
L 67.4375 72.796875 
L 28.421875 -2.640625 
z
M 52.09375 16.796875 
Q 52.09375 24.515625 55.953125 29.859375 
Q 59.8125 35.203125 67.1875 35.203125 
Q 73.921875 35.203125 78.34375 30.390625 
Q 82.765625 25.59375 82.765625 16.265625 
Q 82.765625 7.171875 78.296875 2.265625 
Q 73.828125 -2.640625 67.234375 -2.640625 
Q 60.75 -2.640625 56.421875 2.21875 
Q 52.09375 7.078125 52.09375 16.796875 
z
M 67.4375 29.15625 
Q 64.109375 29.15625 61.9375 26.3125 
Q 59.765625 23.484375 59.765625 15.921875 
Q 59.765625 9.078125 61.953125 6.25 
Q 64.15625 3.421875 67.390625 3.421875 
Q 70.75 3.421875 72.921875 6.25 
Q 75.09375 9.078125 75.09375 16.609375 
Q 75.09375 23.53125 72.890625 26.34375 
Q 70.703125 29.15625 67.4375 29.15625 
z
" id="ArialMT-37"/>
     </defs>
     <g transform="translate(28.518768 129.124375)rotate(-90)scale(0.13 -0.13)">
      <use transform="translate(0 0.562031)" xlink:href="#STIXGeneral-Italic-99"/>
      <use transform="translate(50.573119 35.837031)scale(0.7)" xlink:href="#STIXGeneral-Italic-945"/>
      <use transform="translate(93.534304 60.529531)scale(0.49)" xlink:href="#STIXGeneral-Regular-8242"/>
      <use transform="translate(120.889861 35.837031)scale(0.7)" xlink:href="#STIXGeneral-Regular-43"/>
      <use transform="translate(178.947848 35.837031)scale(0.7)" xlink:href="#STIXGeneral-Italic-952"/>
      <use transform="translate(216.957212 0.062031)" xlink:href="#ArialMT-32"/>
      <use transform="translate(244.740415 0.062031)" xlink:href="#ArialMT-40"/>
      <use transform="translate(278.041197 0.062031)" xlink:href="#ArialMT-119"/>
      <use transform="translate(350.257994 0.062031)" xlink:href="#ArialMT-116"/>
      <use transform="translate(378.041197 0.062031)" xlink:href="#ArialMT-46"/>
      <use transform="translate(405.8244 0.062031)" xlink:href="#ArialMT-37"/>
      <use transform="translate(494.740415 0.062031)" xlink:href="#ArialMT-41"/>
      <path d="M 0 105.5 
L 0 111.75 
L 216.957212 111.75 
L 216.957212 105.5 
L 0 105.5 
z
"/>
     </g>
    </g>
   </g>
   <g id="line2d_8">
    <path clip-path="url(#pcfb37c98a0)" d="M 61.330591 82.902649 
L 61.468341 82.499795 
L 61.901208 81.887093 
L 62.679222 81.206312 
L 63.931097 80.437259 
L 65.833153 79.562964 
L 68.345719 78.655234 
L 71.806008 77.639258 
L 76.416787 76.513517 
L 91.8316 72.970685 
L 95.880358 71.715168 
L 99.878423 70.236317 
L 103.704576 68.587638 
L 107.658562 66.651159 
L 111.925516 64.314413 
L 116.609027 61.478878 
L 122.152101 57.809804 
L 126.635048 54.595364 
L 132.651982 50.031246 
L 141.842684 42.584196 
L 145.170732 39.493248 
L 148.057979 36.513331 
L 150.592585 33.578458 
L 152.75251 30.739135 
L 156.168719 25.738994 
L 157.557242 23.005641 
L 158.130283 21.911382 
L 326.714649 21.911382 
L 326.714649 21.911382 
" style="fill:none;stroke:#1f77b4;stroke-linecap:square;"/>
   </g>
   <g id="line2d_9">
    <path clip-path="url(#pcfb37c98a0)" d="M 61.330591 82.902649 
L 61.468782 83.81289 
L 61.841038 84.586644 
L 62.549185 85.457465 
L 63.924485 86.587061 
L 65.592917 87.597777 
L 67.664682 88.603579 
L 70.569561 89.764872 
L 74.464038 91.048661 
L 77.844982 91.952603 
L 80.734433 92.541927 
L 83.524704 92.914809 
L 86.30175 93.074976 
L 89.122877 93.01299 
L 92.076244 92.720881 
L 95.316132 92.169827 
L 99.018861 91.305817 
L 103.448912 90.035489 
L 109.245446 88.122815 
L 116.584783 85.463418 
L 126.216287 81.73419 
L 136.905712 77.348593 
L 146.823736 73.038543 
L 156.234839 68.698622 
L 164.477819 64.658259 
L 172.279997 60.58647 
L 179.288734 56.690305 
L 185.548109 52.964369 
L 191.344643 49.260762 
L 196.568136 45.663782 
L 201.262667 42.166259 
L 205.472317 38.758401 
L 209.241166 35.425154 
L 212.723495 32.045583 
L 215.610742 28.92491 
L 218.123308 25.88721 
L 220.371393 22.817687 
L 222.222758 19.90561 
L 223.567201 17.844057 
L 326.714649 17.844057 
L 326.714649 17.844057 
" style="fill:none;stroke:#ff7f0e;stroke-linecap:square;"/>
   </g>
   <g id="line2d_10">
    <path clip-path="url(#pcfb37c98a0)" d="M 61.330392 82.902649 
L 61.446962 85.341369 
L 61.787701 87.421581 
L 62.337601 89.45333 
L 63.137655 91.565437 
L 64.180149 93.693169 
L 65.50696 95.890431 
L 67.170984 98.19242 
L 69.046593 100.416738 
L 71.292474 102.74032 
L 73.76096 104.975729 
L 76.207406 106.89618 
L 78.543652 108.450393 
L 80.791737 109.680738 
L 83.039823 110.658263 
L 85.376068 111.432337 
L 87.976794 112.053001 
L 90.952202 112.526868 
L 94.61085 112.875913 
L 99.591902 113.113082 
L 107.460201 113.245058 
L 127.164009 113.291762 
L 326.714649 113.332766 
L 326.714649 113.332766 
" style="fill:none;stroke:#2ca02c;stroke-linecap:square;"/>
   </g>
   <g id="line2d_11">
    <path clip-path="url(#pcfb37c98a0)" d="M 61.330392 82.902649 
L 61.442775 93.898338 
L 61.781089 104.423358 
L 62.289994 114.033931 
L 63.042442 124.225788 
L 64.00978 134.340134 
L 65.199061 144.438363 
L 66.594857 154.390459 
L 68.133253 163.785807 
L 68.65406 166.096601 
L 68.983558 166.216024 
L 70.199288 166.289454 
L 77.15072 166.378282 
L 104.830823 166.45275 
L 235.887591 166.483726 
L 326.714649 166.484858 
L 326.714649 166.484858 
" style="fill:none;stroke:#d62728;stroke-linecap:square;"/>
   </g>
   <g id="line2d_12">
    <path clip-path="url(#pcfb37c98a0)" d="M 61.330392 82.902649 
L 61.442157 115.544981 
L 61.772935 149.185663 
L 62.074663 163.618298 
L 62.302116 165.433584 
L 62.549846 165.893736 
L 62.910642 166.071554 
L 63.818031 166.204389 
L 66.437051 166.316069 
L 75.634365 166.400325 
L 112.727774 166.464492 
L 326.714649 166.484925 
L 326.714649 166.484925 
" style="fill:none;stroke:#9467bd;stroke-linecap:square;"/>
   </g>
   <g id="patch_3">
    <path d="M 60.448768 167.719375 
L 60.448768 21.759375 
" style="fill:none;stroke:#000000;stroke-linecap:square;stroke-linejoin:miter;stroke-width:0.8;"/>
   </g>
   <g id="patch_4">
    <path d="M 326.692609 167.719375 
L 326.692609 21.759375 
" style="fill:none;stroke:#000000;stroke-linecap:square;stroke-linejoin:miter;stroke-width:0.8;"/>
   </g>
   <g id="patch_5">
    <path d="M 60.448768 167.719375 
L 326.692609 167.719375 
" style="fill:none;stroke:#000000;stroke-linecap:square;stroke-linejoin:miter;stroke-width:0.8;"/>
   </g>
   <g id="patch_6">
    <path d="M 60.448768 21.759375 
L 326.692609 21.759375 
" style="fill:none;stroke:#000000;stroke-linecap:square;stroke-linejoin:miter;stroke-width:0.8;"/>
   </g>
   <g id="text_10">
    <!-- a) -->
    <g transform="translate(7.2 21.759375)scale(0.2 -0.2)">
     <use xlink:href="#ArialMT-97"/>
     <use x="55.615234" xlink:href="#ArialMT-41"/>
    </g>
   </g>
   <g id="legend_1">
    <g id="patch_7">
     <path d="M 211.592609 162.719375 
L 321.692609 162.719375 
L 321.692609 72.92875 
L 211.592609 72.92875 
z
" style="fill:#ffffff;opacity:0.8;stroke:#cccccc;stroke-linejoin:miter;"/>
    </g>
    <g id="line2d_13">
     <path d="M 215.592609 80.586562 
L 235.592609 80.586562 
" style="fill:none;stroke:#1f77b4;stroke-linecap:square;"/>
    </g>
    <g id="line2d_14"/>
    <g id="text_11">
     <!-- $\alpha'-\theta$ ortho -->
     <defs>
      <path d="M 62.09375 22 
L 6.40625 22 
L 6.40625 28.59375 
L 62.09375 28.59375 
z
" id="STIXGeneral-Regular-8722"/>
     </defs>
     <g transform="translate(243.592609 84.086562)scale(0.1 -0.1)">
      <use transform="translate(0 0.267188)" xlink:href="#STIXGeneral-Italic-945"/>
      <use transform="translate(61.373122 35.542188)scale(0.7)" xlink:href="#STIXGeneral-Regular-8242"/>
      <use transform="translate(100.452489 0.267188)" xlink:href="#STIXGeneral-Regular-8722"/>
      <use transform="translate(183.39247 0.267188)" xlink:href="#STIXGeneral-Italic-952"/>
      <use transform="translate(231.392455 0.267188)" xlink:href="#ArialMT-32"/>
      <use transform="translate(259.175658 0.267188)" xlink:href="#ArialMT-111"/>
      <use transform="translate(314.790892 0.267188)" xlink:href="#ArialMT-114"/>
      <use transform="translate(348.091674 0.267188)" xlink:href="#ArialMT-116"/>
      <use transform="translate(375.874877 0.267188)" xlink:href="#ArialMT-104"/>
      <use transform="translate(431.490111 0.267188)" xlink:href="#ArialMT-111"/>
     </g>
    </g>
    <g id="line2d_15">
     <path d="M 215.592609 94.874062 
L 235.592609 94.874062 
" style="fill:none;stroke:#ff7f0e;stroke-linecap:square;"/>
    </g>
    <g id="line2d_16"/>
    <g id="text_12">
     <!-- $\mu_C =$ 20.0 kJ/mol -->
     <defs>
      <path d="M 46.90625 11.703125 
L 48.296875 10.796875 
Q 43.703125 3.703125 40.84375 1.296875 
Q 38 -1.09375 34.59375 -1.09375 
Q 32.5 -1.09375 31.09375 0.09375 
Q 29.703125 1.296875 29.703125 3.40625 
Q 29.703125 6.5 31.203125 11 
L 34.5 21.40625 
L 34.40625 21.40625 
Q 27.59375 9.296875 23.046875 4.1875 
Q 18.5 -0.90625 14.09375 -0.90625 
Q 11.296875 -0.90625 10.5 1.90625 
Q 9.59375 -1.703125 8.546875 -5.84375 
Q 7.5 -10 7.046875 -11.84375 
Q 6.59375 -13.703125 6 -15.703125 
Q 5.40625 -17.703125 4.90625 -18.703125 
Q 4.40625 -19.703125 3.796875 -20.5 
L -3.296875 -20.5 
Q -0.90625 -17 1.09375 -9.296875 
L 14.203125 42.796875 
L 21.703125 42.796875 
L 14.203125 13 
Q 13.796875 11.203125 13.796875 10.296875 
Q 13.796875 5.5 17.796875 5.5 
Q 21.796875 5.5 28.296875 15.140625 
Q 34.796875 24.796875 36.296875 30.59375 
L 39.59375 42.796875 
L 47.296875 42.796875 
L 39.40625 12.796875 
Q 37.5 5.203125 37.5 5.09375 
Q 37.5 3.59375 38.59375 3.59375 
Q 39.796875 3.59375 41.4375 5.140625 
Q 43.09375 6.703125 46.90625 11.703125 
z
" id="STIXGeneral-Italic-956"/>
      <path d="M 68.90625 66.40625 
L 65.203125 46.40625 
L 63.40625 46.703125 
Q 61.59375 63 48.5 63 
Q 37.59375 63 28.59375 53.296875 
Q 23.296875 47.703125 20.546875 39.703125 
Q 17.796875 31.703125 17.796875 23.203125 
Q 17.796875 2.703125 35.296875 2.703125 
Q 41.5 2.703125 46.640625 5.296875 
Q 51.796875 7.90625 58.203125 14.59375 
L 60 13.09375 
Q 53.296875 5.203125 46.84375 1.703125 
Q 40.40625 -1.796875 32.703125 -1.796875 
Q 21 -1.796875 13.796875 5.140625 
Q 6.59375 12.09375 6.59375 24.296875 
Q 6.59375 34.59375 11.6875 43.9375 
Q 16.796875 53.296875 25.296875 59.296875 
Q 35.5 66.59375 47.203125 66.59375 
Q 54.09375 66.59375 58.90625 64.90625 
Q 60.90625 64.203125 63 64.203125 
Q 65.703125 64.203125 66.796875 66.40625 
z
" id="STIXGeneral-Italic-67"/>
      <path d="M 63.703125 32 
L 4.796875 32 
L 4.796875 38.59375 
L 63.703125 38.59375 
z
M 63.703125 12 
L 4.796875 12 
L 4.796875 18.59375 
L 63.703125 18.59375 
z
" id="STIXGeneral-Regular-61"/>
      <path d="M 6.640625 0 
L 6.640625 71.578125 
L 15.4375 71.578125 
L 15.4375 30.765625 
L 36.234375 51.859375 
L 47.609375 51.859375 
L 27.78125 32.625 
L 49.609375 0 
L 38.765625 0 
L 21.625 26.515625 
L 15.4375 20.5625 
L 15.4375 0 
z
" id="ArialMT-107"/>
      <path d="M 2.875 20.3125 
L 11.421875 21.484375 
Q 11.765625 13.28125 14.5 10.25 
Q 17.234375 7.234375 22.078125 7.234375 
Q 25.640625 7.234375 28.21875 8.859375 
Q 30.8125 10.5 31.78125 13.296875 
Q 32.765625 16.109375 32.765625 22.265625 
L 32.765625 71.578125 
L 42.234375 71.578125 
L 42.234375 22.796875 
Q 42.234375 13.8125 40.0625 8.875 
Q 37.890625 3.953125 33.171875 1.359375 
Q 28.46875 -1.21875 22.125 -1.21875 
Q 12.703125 -1.21875 7.6875 4.203125 
Q 2.6875 9.625 2.875 20.3125 
z
" id="ArialMT-74"/>
      <path d="M 0 -1.21875 
L 20.75 72.796875 
L 27.78125 72.796875 
L 7.078125 -1.21875 
z
" id="ArialMT-47"/>
     </defs>
     <g transform="translate(243.592609 98.374062)scale(0.1 -0.1)">
      <use transform="translate(0 0.203125)" xlink:href="#STIXGeneral-Italic-956"/>
      <use transform="translate(52.599991 -13.025)scale(0.7)" xlink:href="#STIXGeneral-Italic-67"/>
      <use transform="translate(118.13936 0.203125)" xlink:href="#STIXGeneral-Regular-61"/>
      <use transform="translate(201.079341 0.203125)" xlink:href="#ArialMT-32"/>
      <use transform="translate(228.862544 0.203125)" xlink:href="#ArialMT-50"/>
      <use transform="translate(284.477779 0.203125)" xlink:href="#ArialMT-48"/>
      <use transform="translate(340.093013 0.203125)" xlink:href="#ArialMT-46"/>
      <use transform="translate(367.876216 0.203125)" xlink:href="#ArialMT-48"/>
      <use transform="translate(423.491451 0.203125)" xlink:href="#ArialMT-32"/>
      <use transform="translate(451.274654 0.203125)" xlink:href="#ArialMT-107"/>
      <use transform="translate(501.274654 0.203125)" xlink:href="#ArialMT-74"/>
      <use transform="translate(551.274654 0.203125)" xlink:href="#ArialMT-47"/>
      <use transform="translate(579.057857 0.203125)" xlink:href="#ArialMT-109"/>
      <use transform="translate(662.358638 0.203125)" xlink:href="#ArialMT-111"/>
      <use transform="translate(717.973872 0.203125)" xlink:href="#ArialMT-108"/>
     </g>
    </g>
    <g id="line2d_17">
     <path d="M 215.592609 109.274062 
L 235.592609 109.274062 
" style="fill:none;stroke:#2ca02c;stroke-linecap:square;"/>
    </g>
    <g id="line2d_18"/>
    <g id="text_13">
     <!-- $\mu_C =$ 23.2 kJ/mol -->
     <defs>
      <path d="M 4.203125 18.890625 
L 12.984375 20.0625 
Q 14.5 12.59375 18.140625 9.296875 
Q 21.78125 6 27 6 
Q 33.203125 6 37.46875 10.296875 
Q 41.75 14.59375 41.75 20.953125 
Q 41.75 27 37.796875 30.921875 
Q 33.84375 34.859375 27.734375 34.859375 
Q 25.25 34.859375 21.53125 33.890625 
L 22.515625 41.609375 
Q 23.390625 41.5 23.921875 41.5 
Q 29.546875 41.5 34.03125 44.421875 
Q 38.53125 47.359375 38.53125 53.46875 
Q 38.53125 58.296875 35.25 61.46875 
Q 31.984375 64.65625 26.8125 64.65625 
Q 21.6875 64.65625 18.265625 61.421875 
Q 14.84375 58.203125 13.875 51.765625 
L 5.078125 53.328125 
Q 6.6875 62.15625 12.390625 67.015625 
Q 18.109375 71.875 26.609375 71.875 
Q 32.46875 71.875 37.390625 69.359375 
Q 42.328125 66.84375 44.9375 62.5 
Q 47.5625 58.15625 47.5625 53.265625 
Q 47.5625 48.640625 45.0625 44.828125 
Q 42.578125 41.015625 37.703125 38.765625 
Q 44.046875 37.3125 47.5625 32.6875 
Q 51.078125 28.078125 51.078125 21.140625 
Q 51.078125 11.765625 44.234375 5.25 
Q 37.40625 -1.265625 26.953125 -1.265625 
Q 17.53125 -1.265625 11.296875 4.34375 
Q 5.078125 9.96875 4.203125 18.890625 
z
" id="ArialMT-51"/>
     </defs>
     <g transform="translate(243.592609 112.774062)scale(0.1 -0.1)">
      <use transform="translate(0 0.203125)" xlink:href="#STIXGeneral-Italic-956"/>
      <use transform="translate(52.599991 -13.025)scale(0.7)" xlink:href="#STIXGeneral-Italic-67"/>
      <use transform="translate(118.13936 0.203125)" xlink:href="#STIXGeneral-Regular-61"/>
      <use transform="translate(201.079341 0.203125)" xlink:href="#ArialMT-32"/>
      <use transform="translate(228.862544 0.203125)" xlink:href="#ArialMT-50"/>
      <use transform="translate(284.477779 0.203125)" xlink:href="#ArialMT-51"/>
      <use transform="translate(340.093013 0.203125)" xlink:href="#ArialMT-46"/>
      <use transform="translate(367.876216 0.203125)" xlink:href="#ArialMT-50"/>
      <use transform="translate(423.491451 0.203125)" xlink:href="#ArialMT-32"/>
      <use transform="translate(451.274654 0.203125)" xlink:href="#ArialMT-107"/>
      <use transform="translate(501.274654 0.203125)" xlink:href="#ArialMT-74"/>
      <use transform="translate(551.274654 0.203125)" xlink:href="#ArialMT-47"/>
      <use transform="translate(579.057857 0.203125)" xlink:href="#ArialMT-109"/>
      <use transform="translate(662.358638 0.203125)" xlink:href="#ArialMT-111"/>
      <use transform="translate(717.973872 0.203125)" xlink:href="#ArialMT-108"/>
     </g>
    </g>
    <g id="line2d_19">
     <path d="M 215.592609 123.674062 
L 235.592609 123.674062 
" style="fill:none;stroke:#d62728;stroke-linecap:square;"/>
    </g>
    <g id="line2d_20"/>
    <g id="text_14">
     <!-- $\mu_C =$ 30.0 kJ/mol -->
     <g transform="translate(243.592609 127.174062)scale(0.1 -0.1)">
      <use transform="translate(0 0.203125)" xlink:href="#STIXGeneral-Italic-956"/>
      <use transform="translate(52.599991 -13.025)scale(0.7)" xlink:href="#STIXGeneral-Italic-67"/>
      <use transform="translate(118.13936 0.203125)" xlink:href="#STIXGeneral-Regular-61"/>
      <use transform="translate(201.079341 0.203125)" xlink:href="#ArialMT-32"/>
      <use transform="translate(228.862544 0.203125)" xlink:href="#ArialMT-51"/>
      <use transform="translate(284.477779 0.203125)" xlink:href="#ArialMT-48"/>
      <use transform="translate(340.093013 0.203125)" xlink:href="#ArialMT-46"/>
      <use transform="translate(367.876216 0.203125)" xlink:href="#ArialMT-48"/>
      <use transform="translate(423.491451 0.203125)" xlink:href="#ArialMT-32"/>
      <use transform="translate(451.274654 0.203125)" xlink:href="#ArialMT-107"/>
      <use transform="translate(501.274654 0.203125)" xlink:href="#ArialMT-74"/>
      <use transform="translate(551.274654 0.203125)" xlink:href="#ArialMT-47"/>
      <use transform="translate(579.057857 0.203125)" xlink:href="#ArialMT-109"/>
      <use transform="translate(662.358638 0.203125)" xlink:href="#ArialMT-111"/>
      <use transform="translate(717.973872 0.203125)" xlink:href="#ArialMT-108"/>
     </g>
    </g>
    <g id="line2d_21">
     <path d="M 215.592609 139.074062 
L 235.592609 139.074062 
" style="fill:none;stroke:#9467bd;stroke-linecap:square;"/>
    </g>
    <g id="line2d_22"/>
    <g id="text_15">
     <!-- $\alpha'-\theta$ para -->
     <g transform="translate(243.592609 142.574062)scale(0.1 -0.1)">
      <use transform="translate(0 0.267188)" xlink:href="#STIXGeneral-Italic-945"/>
      <use transform="translate(61.373122 35.542188)scale(0.7)" xlink:href="#STIXGeneral-Regular-8242"/>
      <use transform="translate(100.452489 0.267188)" xlink:href="#STIXGeneral-Regular-8722"/>
      <use transform="translate(183.39247 0.267188)" xlink:href="#STIXGeneral-Italic-952"/>
      <use transform="translate(231.392455 0.267188)" xlink:href="#ArialMT-32"/>
      <use transform="translate(259.175658 0.267188)" xlink:href="#ArialMT-112"/>
      <use transform="translate(314.790892 0.267188)" xlink:href="#ArialMT-97"/>
      <use transform="translate(370.406127 0.267188)" xlink:href="#ArialMT-114"/>
      <use transform="translate(403.706908 0.267188)" xlink:href="#ArialMT-97"/>
     </g>
    </g>
    <g id="line2d_23">
     <path d="M 215.592609 153.231875 
L 235.592609 153.231875 
" style="fill:none;stroke:#8c564b;stroke-linecap:square;"/>
    </g>
    <g id="line2d_24"/>
    <g id="text_16">
     <!-- no martensite -->
     <g transform="translate(243.592609 156.731875)scale(0.1 -0.1)">
      <use xlink:href="#ArialMT-110"/>
      <use x="55.615234" xlink:href="#ArialMT-111"/>
      <use x="111.230469" xlink:href="#ArialMT-32"/>
      <use x="139.013672" xlink:href="#ArialMT-109"/>
      <use x="222.314453" xlink:href="#ArialMT-97"/>
      <use x="277.929688" xlink:href="#ArialMT-114"/>
      <use x="311.230469" xlink:href="#ArialMT-116"/>
      <use x="339.013672" xlink:href="#ArialMT-101"/>
      <use x="394.628906" xlink:href="#ArialMT-110"/>
      <use x="450.244141" xlink:href="#ArialMT-115"/>
      <use x="500.244141" xlink:href="#ArialMT-105"/>
      <use x="522.460938" xlink:href="#ArialMT-116"/>
      <use x="550.244141" xlink:href="#ArialMT-101"/>
     </g>
    </g>
   </g>
  </g>
  <g id="axes_2">
   <g id="patch_8">
    <path d="M 60.448768 379.039375 
L 326.692609 379.039375 
L 326.692609 233.079375 
L 60.448768 233.079375 
z
" style="fill:#ffffff;"/>
   </g>
   <g id="matplotlib.axis_3">
    <g id="xtick_5">
     <g id="line2d_25">
      <g>
       <use style="stroke:#000000;stroke-width:0.8;" x="61.33037" xlink:href="#m48867171f6" y="379.039375"/>
      </g>
     </g>
     <g id="text_17">
      <!-- 0 -->
      <g transform="translate(57.715761 395.344531)scale(0.13 -0.13)">
       <use xlink:href="#ArialMT-48"/>
      </g>
     </g>
    </g>
    <g id="xtick_6">
     <g id="line2d_26">
      <g>
       <use style="stroke:#000000;stroke-width:0.8;" x="149.490583" xlink:href="#m48867171f6" y="379.039375"/>
      </g>
     </g>
     <g id="text_18">
      <!-- 200 -->
      <g transform="translate(138.646754 395.344531)scale(0.13 -0.13)">
       <use xlink:href="#ArialMT-50"/>
       <use x="55.615234" xlink:href="#ArialMT-48"/>
       <use x="111.230469" xlink:href="#ArialMT-48"/>
      </g>
     </g>
    </g>
    <g id="xtick_7">
     <g id="line2d_27">
      <g>
       <use style="stroke:#000000;stroke-width:0.8;" x="237.650795" xlink:href="#m48867171f6" y="379.039375"/>
      </g>
     </g>
     <g id="text_19">
      <!-- 400 -->
      <g transform="translate(226.806967 395.344531)scale(0.13 -0.13)">
       <use xlink:href="#ArialMT-52"/>
       <use x="55.615234" xlink:href="#ArialMT-48"/>
       <use x="111.230469" xlink:href="#ArialMT-48"/>
      </g>
     </g>
    </g>
    <g id="xtick_8">
     <g id="line2d_28">
      <g>
       <use style="stroke:#000000;stroke-width:0.8;" x="325.811007" xlink:href="#m48867171f6" y="379.039375"/>
      </g>
     </g>
     <g id="text_20">
      <!-- 600 -->
      <g transform="translate(314.967179 395.344531)scale(0.13 -0.13)">
       <use xlink:href="#ArialMT-54"/>
       <use x="55.615234" xlink:href="#ArialMT-48"/>
       <use x="111.230469" xlink:href="#ArialMT-48"/>
      </g>
     </g>
    </g>
    <g id="text_21">
     <!-- Isothermal holding (partitioning) time (s) -->
     <g transform="translate(79.061001 411.391875)scale(0.13 -0.13)">
      <use xlink:href="#ArialMT-73"/>
      <use x="27.783203" xlink:href="#ArialMT-115"/>
      <use x="77.783203" xlink:href="#ArialMT-111"/>
      <use x="133.398438" xlink:href="#ArialMT-116"/>
      <use x="161.181641" xlink:href="#ArialMT-104"/>
      <use x="216.796875" xlink:href="#ArialMT-101"/>
      <use x="272.412109" xlink:href="#ArialMT-114"/>
      <use x="305.712891" xlink:href="#ArialMT-109"/>
      <use x="389.013672" xlink:href="#ArialMT-97"/>
      <use x="444.628906" xlink:href="#ArialMT-108"/>
      <use x="466.845703" xlink:href="#ArialMT-32"/>
      <use x="494.628906" xlink:href="#ArialMT-104"/>
      <use x="550.244141" xlink:href="#ArialMT-111"/>
      <use x="605.859375" xlink:href="#ArialMT-108"/>
      <use x="628.076172" xlink:href="#ArialMT-100"/>
      <use x="683.691406" xlink:href="#ArialMT-105"/>
      <use x="705.908203" xlink:href="#ArialMT-110"/>
      <use x="761.523438" xlink:href="#ArialMT-103"/>
      <use x="817.138672" xlink:href="#ArialMT-32"/>
      <use x="844.921875" xlink:href="#ArialMT-40"/>
      <use x="878.222656" xlink:href="#ArialMT-112"/>
      <use x="933.837891" xlink:href="#ArialMT-97"/>
      <use x="989.453125" xlink:href="#ArialMT-114"/>
      <use x="1022.753906" xlink:href="#ArialMT-116"/>
      <use x="1050.537109" xlink:href="#ArialMT-105"/>
      <use x="1072.753906" xlink:href="#ArialMT-116"/>
      <use x="1100.537109" xlink:href="#ArialMT-105"/>
      <use x="1122.753906" xlink:href="#ArialMT-111"/>
      <use x="1178.369141" xlink:href="#ArialMT-110"/>
      <use x="1233.984375" xlink:href="#ArialMT-105"/>
      <use x="1256.201172" xlink:href="#ArialMT-110"/>
      <use x="1311.816406" xlink:href="#ArialMT-103"/>
      <use x="1367.431641" xlink:href="#ArialMT-41"/>
      <use x="1400.732422" xlink:href="#ArialMT-32"/>
      <use x="1428.515625" xlink:href="#ArialMT-116"/>
      <use x="1456.298828" xlink:href="#ArialMT-105"/>
      <use x="1478.515625" xlink:href="#ArialMT-109"/>
      <use x="1561.816406" xlink:href="#ArialMT-101"/>
      <use x="1617.431641" xlink:href="#ArialMT-32"/>
      <use x="1645.214844" xlink:href="#ArialMT-40"/>
      <use x="1678.515625" xlink:href="#ArialMT-115"/>
      <use x="1728.515625" xlink:href="#ArialMT-41"/>
     </g>
    </g>
   </g>
   <g id="matplotlib.axis_4">
    <g id="ytick_4">
     <g id="line2d_29">
      <g>
       <use style="stroke:#000000;stroke-width:0.8;" x="60.448768" xlink:href="#m0faeaca06c" y="345.356298"/>
      </g>
     </g>
     <g id="text_22">
      <!-- 1.0 -->
      <g transform="translate(35.378768 350.008876)scale(0.13 -0.13)">
       <use xlink:href="#ArialMT-49"/>
       <use x="55.615234" xlink:href="#ArialMT-46"/>
       <use x="83.398438" xlink:href="#ArialMT-48"/>
      </g>
     </g>
    </g>
    <g id="ytick_5">
     <g id="line2d_30">
      <g>
       <use style="stroke:#000000;stroke-width:0.8;" x="60.448768" xlink:href="#m0faeaca06c" y="289.217837"/>
      </g>
     </g>
     <g id="text_23">
      <!-- 1.5 -->
      <g transform="translate(35.378768 293.870415)scale(0.13 -0.13)">
       <use xlink:href="#ArialMT-49"/>
       <use x="55.615234" xlink:href="#ArialMT-46"/>
       <use x="83.398438" xlink:href="#ArialMT-53"/>
      </g>
     </g>
    </g>
    <g id="ytick_6">
     <g id="line2d_31">
      <g>
       <use style="stroke:#000000;stroke-width:0.8;" x="60.448768" xlink:href="#m0faeaca06c" y="233.079375"/>
      </g>
     </g>
     <g id="text_24">
      <!-- 2.0 -->
      <g transform="translate(35.378768 237.731953)scale(0.13 -0.13)">
       <use xlink:href="#ArialMT-50"/>
       <use x="55.615234" xlink:href="#ArialMT-46"/>
       <use x="83.398438" xlink:href="#ArialMT-48"/>
      </g>
     </g>
    </g>
    <g id="text_25">
     <!-- $\overline{c^{\gamma}}$ (wt.%) -->
     <defs>
      <path d="M 43.796875 42.796875 
L 16.40625 3.90625 
Q 16.203125 0.5 16.09375 -1.140625 
Q 16 -2.796875 15.59375 -6.34375 
Q 15.203125 -9.90625 14.59375 -11.84375 
Q 14 -13.796875 13.046875 -16.140625 
Q 12.09375 -18.5 10.640625 -19.546875 
Q 9.203125 -20.59375 7.296875 -20.59375 
Q 3.5 -20.59375 3.5 -15.59375 
Q 3.5 -13.203125 5.140625 -9.5 
Q 6.796875 -5.796875 9.5 -0.890625 
Q 12.203125 4 13.203125 6.203125 
Q 14.703125 20.203125 14.703125 24.296875 
Q 14.703125 37.203125 9.90625 37.203125 
Q 8.40625 37.203125 6.59375 35.296875 
Q 4.796875 33.40625 3.5 29.59375 
L 1.90625 29.59375 
Q 5.59375 43.5 11.796875 43.5 
Q 15.40625 43.5 16.796875 40.453125 
Q 18.203125 37.40625 18.203125 31.703125 
Q 18.203125 28.90625 17.890625 25.5 
Q 17.59375 22.09375 17.046875 17.9375 
Q 16.5 13.796875 16.40625 12.703125 
L 34.203125 42.796875 
z
" id="STIXGeneral-Italic-947"/>
     </defs>
     <g transform="translate(28.518768 331.734375)rotate(-90)scale(0.13 -0.13)">
      <use transform="translate(0 1.025)" xlink:href="#STIXGeneral-Italic-99"/>
      <use transform="translate(50.573119 36.3)scale(0.7)" xlink:href="#STIXGeneral-Italic-947"/>
      <use transform="translate(83.682483 0.525)" xlink:href="#ArialMT-32"/>
      <use transform="translate(111.465686 0.525)" xlink:href="#ArialMT-40"/>
      <use transform="translate(144.766468 0.525)" xlink:href="#ArialMT-119"/>
      <use transform="translate(216.983264 0.525)" xlink:href="#ArialMT-116"/>
      <use transform="translate(244.766468 0.525)" xlink:href="#ArialMT-46"/>
      <use transform="translate(272.549671 0.525)" xlink:href="#ArialMT-37"/>
      <use transform="translate(361.465686 0.525)" xlink:href="#ArialMT-41"/>
      <path d="M 0 78.5 
L 0 84.75 
L 83.682483 84.75 
L 83.682483 78.5 
L 0 78.5 
z
"/>
     </g>
    </g>
   </g>
   <g id="line2d_32">
    <path clip-path="url(#pfd2a3c7010)" d="M 61.330591 372.789509 
L 61.362769 372.865063 
L 61.44013 372.771323 
L 61.90782 371.756533 
L 66.481131 362.147114 
L 76.533599 342.263703 
L 79.193833 337.464176 
L 81.386819 333.978875 
L 83.366015 331.252764 
L 85.334192 328.922049 
L 87.346449 326.881 
L 89.539434 324.97517 
L 92.04098 323.115526 
L 94.628483 321.463415 
L 97.425365 319.922818 
L 100.209024 318.598348 
L 103.548092 317.242205 
L 107.127397 316.026495 
L 111.20701 314.883825 
L 116.084474 313.767767 
L 121.341027 312.754006 
L 134.657627 310.236946 
L 134.679667 310.355579 
L 134.767827 310.335185 
L 138.404436 309.394157 
L 141.776564 308.30084 
L 144.575651 307.165126 
L 146.911896 305.981283 
L 148.873461 304.74286 
L 150.548505 303.428624 
L 151.981109 302.023327 
L 153.634113 300.041003 
L 154.692035 298.149941 
L 155.573637 296.115556 
L 156.322999 293.813289 
L 156.984201 291.019112 
L 157.711522 285.850359 
L 158.020083 281.825517 
L 158.174364 281.015337 
L 159.011886 280.815796 
L 161.656692 280.179062 
L 164.257418 279.814182 
L 167.739747 279.559918 
L 173.20568 279.404563 
L 185.87871 279.341619 
L 278.094292 279.337436 
L 326.714649 279.337436 
L 326.714649 279.337436 
" style="fill:none;stroke:#1f77b4;stroke-linecap:square;"/>
   </g>
   <g id="line2d_33">
    <path clip-path="url(#pfd2a3c7010)" d="M 61.330591 372.522677 
L 61.746046 370.060027 
L 62.665116 366.230607 
L 64.175741 361.003157 
L 66.595739 353.53567 
L 72.240197 337.07227 
L 77.163944 323.183446 
L 79.453906 317.400537 
L 81.351555 313.184572 
L 83.086107 309.851411 
L 84.428346 307.694384 
L 86.12543 305.395161 
L 87.844554 303.436262 
L 89.585718 301.78513 
L 91.393003 300.376584 
L 93.288447 299.181674 
L 95.316132 298.168371 
L 97.520137 297.31748 
L 99.988623 296.605962 
L 102.83179 296.022546 
L 106.292079 295.550806 
L 110.678049 295.190624 
L 116.893344 294.922968 
L 128.310092 294.698138 
L 163.023175 294.06388 
L 178.385092 293.542765 
L 189.669599 292.94534 
L 197.824419 292.298023 
L 203.885434 291.601384 
L 208.447725 290.85985 
L 211.841893 290.091919 
L 214.640979 289.238052 
L 216.778865 288.360844 
L 218.475949 287.435198 
L 219.864472 286.428806 
L 221.032595 285.315724 
L 222.002357 284.078686 
L 222.817839 282.672998 
L 223.655361 281.208601 
L 224.823484 280.777713 
L 226.674848 280.1982 
L 228.790694 279.782009 
L 231.52366 279.480573 
L 235.51291 279.281738 
L 242.521647 279.18223 
L 269.146031 279.160116 
L 326.714649 279.160061 
L 326.714649 279.160061 
" style="fill:none;stroke:#ff7f0e;stroke-linecap:square;"/>
   </g>
   <g id="line2d_34">
    <path clip-path="url(#pfd2a3c7010)" d="M 61.330392 372.404443 
L 61.552093 369.521572 
L 62.123592 365.493665 
L 63.029658 360.631204 
L 64.55483 353.648785 
L 66.966012 343.741361 
L 70.895753 328.596757 
L 75.987006 310.2415 
L 78.191011 303.138199 
L 79.976255 298.096334 
L 81.585179 294.195433 
L 83.083903 291.127547 
L 84.516506 288.684432 
L 85.92707 286.70576 
L 87.337633 285.099968 
L 88.792276 283.775441 
L 90.33508 282.673459 
L 91.988084 281.769159 
L 93.817409 281.025718 
L 95.889174 280.426575 
L 98.3797 279.945723 
L 101.487347 279.581586 
L 105.785157 279.321166 
L 112.353093 279.167975 
L 127.318289 279.105793 
L 219.533871 279.10135 
L 326.714649 279.10135 
L 326.714649 279.10135 
" style="fill:none;stroke:#2ca02c;stroke-linecap:square;"/>
   </g>
   <g id="line2d_35">
    <path clip-path="url(#pfd2a3c7010)" d="M 61.330392 372.110086 
L 61.468033 362.964142 
L 61.864511 352.369984 
L 62.558222 339.944863 
L 63.644135 324.69916 
L 65.222203 305.826216 
L 67.409899 282.467125 
L 68.576258 272.073893 
L 68.987526 270.888875 
L 69.702284 269.581391 
L 70.554133 268.509317 
L 71.761927 267.339235 
L 73.963729 265.565702 
L 76.34185 263.904744 
L 78.054363 262.972214 
L 79.586146 262.393785 
L 81.02977 262.084994 
L 82.60343 261.995893 
L 84.232189 262.139054 
L 86.03727 262.517532 
L 88.43082 263.260088 
L 92.217301 264.706796 
L 99.913687 267.672286 
L 104.608219 269.221722 
L 107.834882 270.106508 
L 113.168575 271.335014 
L 119.14143 272.482349 
L 126.084046 273.579835 
L 133.599704 274.54418 
L 142.195325 275.426638 
L 152.179469 276.227024 
L 164.367618 276.961746 
L 177.812051 277.549895 
L 194.364131 278.052823 
L 214.045898 278.441404 
L 243.95425 278.774642 
L 285.25731 278.979523 
L 326.714649 279.058768 
L 326.714649 279.058768 
" style="fill:none;stroke:#d62728;stroke-linecap:square;"/>
   </g>
   <g id="line2d_36">
    <path clip-path="url(#pfd2a3c7010)" d="M 61.330392 371.853522 
L 61.47643 340.498639 
L 61.869029 308.684376 
L 62.112131 300.202834 
L 62.410113 297.103664 
L 63.048172 293.371434 
L 64.320324 287.219878 
L 65.026487 284.860022 
L 65.916905 282.838466 
L 66.921932 281.141489 
L 68.367759 279.174854 
L 70.571765 276.568529 
L 73.802836 273.068625 
L 76.064146 270.913433 
L 77.891266 269.477938 
L 79.528842 268.480663 
L 81.01875 267.822099 
L 82.528493 267.385732 
L 84.029421 267.15838 
L 85.730913 267.110306 
L 87.73215 267.273825 
L 90.381364 267.736863 
L 94.108337 268.636351 
L 104.903555 271.386676 
L 109.113205 272.253694 
L 115.637061 273.387704 
L 122.932319 274.418896 
L 130.910818 275.320162 
L 140.10152 276.133248 
L 150.636665 276.843047 
L 163.441936 277.474228 
L 178.429172 277.988208 
L 197.361578 278.409925 
L 222.068477 278.729538 
L 256.164439 278.944813 
L 308.443445 279.063205 
L 326.714649 279.07959 
L 326.714649 279.07959 
" style="fill:none;stroke:#9467bd;stroke-linecap:square;"/>
   </g>
   <g id="line2d_37">
    <path clip-path="url(#pfd2a3c7010)" d="M 61.330392 360.008436 
L 61.360631 359.897358 
L 61.871894 358.971631 
L 63.049494 357.232114 
L 64.825923 355.015655 
L 67.267961 352.361138 
L 70.122148 349.576581 
L 73.033639 347.01973 
L 78.191011 342.748244 
L 85.023427 337.391001 
L 95.470413 329.516575 
L 112.375133 317.079545 
L 121.036874 310.952186 
L 127.428489 306.693979 
L 132.872383 303.327083 
L 137.919555 300.467575 
L 142.570006 298.08281 
L 147.154337 295.97937 
L 151.694588 294.140224 
L 156.234839 292.537449 
L 160.95141 291.108925 
L 165.866342 289.855396 
L 171.045755 288.7647 
L 176.621888 287.817642 
L 182.793103 286.997591 
L 189.647559 286.310844 
L 197.493818 285.744745 
L 207.323682 285.271037 
L 219.776312 284.913777 
L 237.055713 284.667503 
L 262.820535 284.533539 
L 326.714649 284.482597 
L 326.714649 284.482597 
" style="fill:none;stroke:#8c564b;stroke-linecap:square;"/>
   </g>
   <g id="patch_9">
    <path d="M 60.448768 379.039375 
L 60.448768 233.079375 
" style="fill:none;stroke:#000000;stroke-linecap:square;stroke-linejoin:miter;stroke-width:0.8;"/>
   </g>
   <g id="patch_10">
    <path d="M 326.692609 379.039375 
L 326.692609 233.079375 
" style="fill:none;stroke:#000000;stroke-linecap:square;stroke-linejoin:miter;stroke-width:0.8;"/>
   </g>
   <g id="patch_11">
    <path d="M 60.448768 379.039375 
L 326.692609 379.039375 
" style="fill:none;stroke:#000000;stroke-linecap:square;stroke-linejoin:miter;stroke-width:0.8;"/>
   </g>
   <g id="patch_12">
    <path d="M 60.448768 233.079375 
L 326.692609 233.079375 
" style="fill:none;stroke:#000000;stroke-linecap:square;stroke-linejoin:miter;stroke-width:0.8;"/>
   </g>
   <g id="text_26">
    <!-- b) -->
    <defs>
     <path d="M 14.703125 0 
L 6.546875 0 
L 6.546875 71.578125 
L 15.328125 71.578125 
L 15.328125 46.046875 
Q 20.90625 53.03125 29.546875 53.03125 
Q 34.328125 53.03125 38.59375 51.09375 
Q 42.875 49.171875 45.625 45.671875 
Q 48.390625 42.1875 49.953125 37.25 
Q 51.515625 32.328125 51.515625 26.703125 
Q 51.515625 13.375 44.921875 6.09375 
Q 38.328125 -1.171875 29.109375 -1.171875 
Q 19.921875 -1.171875 14.703125 6.5 
z
M 14.59375 26.3125 
Q 14.59375 17 17.140625 12.84375 
Q 21.296875 6.0625 28.375 6.0625 
Q 34.125 6.0625 38.328125 11.0625 
Q 42.53125 16.0625 42.53125 25.984375 
Q 42.53125 36.140625 38.5 40.96875 
Q 34.46875 45.796875 28.765625 45.796875 
Q 23 45.796875 18.796875 40.796875 
Q 14.59375 35.796875 14.59375 26.3125 
z
" id="ArialMT-98"/>
    </defs>
    <g transform="translate(7.2 233.079375)scale(0.2 -0.2)">
     <use xlink:href="#ArialMT-98"/>
     <use x="55.615234" xlink:href="#ArialMT-41"/>
    </g>
   </g>
  </g>
  <g id="axes_3">
   <g id="patch_13">
    <path d="M 60.448768 590.359375 
L 326.692609 590.359375 
L 326.692609 444.399375 
L 60.448768 444.399375 
z
" style="fill:#ffffff;"/>
   </g>
   <g id="matplotlib.axis_5">
    <g id="xtick_9">
     <g id="line2d_38">
      <g>
       <use style="stroke:#000000;stroke-width:0.8;" x="61.33037" xlink:href="#m48867171f6" y="590.359375"/>
      </g>
     </g>
     <g id="text_27">
      <!-- 0 -->
      <g transform="translate(57.715761 606.664531)scale(0.13 -0.13)">
       <use xlink:href="#ArialMT-48"/>
      </g>
     </g>
    </g>
    <g id="xtick_10">
     <g id="line2d_39">
      <g>
       <use style="stroke:#000000;stroke-width:0.8;" x="149.490583" xlink:href="#m48867171f6" y="590.359375"/>
      </g>
     </g>
     <g id="text_28">
      <!-- 200 -->
      <g transform="translate(138.646754 606.664531)scale(0.13 -0.13)">
       <use xlink:href="#ArialMT-50"/>
       <use x="55.615234" xlink:href="#ArialMT-48"/>
       <use x="111.230469" xlink:href="#ArialMT-48"/>
      </g>
     </g>
    </g>
    <g id="xtick_11">
     <g id="line2d_40">
      <g>
       <use style="stroke:#000000;stroke-width:0.8;" x="237.650795" xlink:href="#m48867171f6" y="590.359375"/>
      </g>
     </g>
     <g id="text_29">
      <!-- 400 -->
      <g transform="translate(226.806967 606.664531)scale(0.13 -0.13)">
       <use xlink:href="#ArialMT-52"/>
       <use x="55.615234" xlink:href="#ArialMT-48"/>
       <use x="111.230469" xlink:href="#ArialMT-48"/>
      </g>
     </g>
    </g>
    <g id="xtick_12">
     <g id="line2d_41">
      <g>
       <use style="stroke:#000000;stroke-width:0.8;" x="325.811007" xlink:href="#m48867171f6" y="590.359375"/>
      </g>
     </g>
     <g id="text_30">
      <!-- 600 -->
      <g transform="translate(314.967179 606.664531)scale(0.13 -0.13)">
       <use xlink:href="#ArialMT-54"/>
       <use x="55.615234" xlink:href="#ArialMT-48"/>
       <use x="111.230469" xlink:href="#ArialMT-48"/>
      </g>
     </g>
    </g>
    <g id="text_31">
     <!-- Isothermal holding (partitioning) time (s) -->
     <g transform="translate(79.061001 622.711875)scale(0.13 -0.13)">
      <use xlink:href="#ArialMT-73"/>
      <use x="27.783203" xlink:href="#ArialMT-115"/>
      <use x="77.783203" xlink:href="#ArialMT-111"/>
      <use x="133.398438" xlink:href="#ArialMT-116"/>
      <use x="161.181641" xlink:href="#ArialMT-104"/>
      <use x="216.796875" xlink:href="#ArialMT-101"/>
      <use x="272.412109" xlink:href="#ArialMT-114"/>
      <use x="305.712891" xlink:href="#ArialMT-109"/>
      <use x="389.013672" xlink:href="#ArialMT-97"/>
      <use x="444.628906" xlink:href="#ArialMT-108"/>
      <use x="466.845703" xlink:href="#ArialMT-32"/>
      <use x="494.628906" xlink:href="#ArialMT-104"/>
      <use x="550.244141" xlink:href="#ArialMT-111"/>
      <use x="605.859375" xlink:href="#ArialMT-108"/>
      <use x="628.076172" xlink:href="#ArialMT-100"/>
      <use x="683.691406" xlink:href="#ArialMT-105"/>
      <use x="705.908203" xlink:href="#ArialMT-110"/>
      <use x="761.523438" xlink:href="#ArialMT-103"/>
      <use x="817.138672" xlink:href="#ArialMT-32"/>
      <use x="844.921875" xlink:href="#ArialMT-40"/>
      <use x="878.222656" xlink:href="#ArialMT-112"/>
      <use x="933.837891" xlink:href="#ArialMT-97"/>
      <use x="989.453125" xlink:href="#ArialMT-114"/>
      <use x="1022.753906" xlink:href="#ArialMT-116"/>
      <use x="1050.537109" xlink:href="#ArialMT-105"/>
      <use x="1072.753906" xlink:href="#ArialMT-116"/>
      <use x="1100.537109" xlink:href="#ArialMT-105"/>
      <use x="1122.753906" xlink:href="#ArialMT-111"/>
      <use x="1178.369141" xlink:href="#ArialMT-110"/>
      <use x="1233.984375" xlink:href="#ArialMT-105"/>
      <use x="1256.201172" xlink:href="#ArialMT-110"/>
      <use x="1311.816406" xlink:href="#ArialMT-103"/>
      <use x="1367.431641" xlink:href="#ArialMT-41"/>
      <use x="1400.732422" xlink:href="#ArialMT-32"/>
      <use x="1428.515625" xlink:href="#ArialMT-116"/>
      <use x="1456.298828" xlink:href="#ArialMT-105"/>
      <use x="1478.515625" xlink:href="#ArialMT-109"/>
      <use x="1561.816406" xlink:href="#ArialMT-101"/>
      <use x="1617.431641" xlink:href="#ArialMT-32"/>
      <use x="1645.214844" xlink:href="#ArialMT-40"/>
      <use x="1678.515625" xlink:href="#ArialMT-115"/>
      <use x="1728.515625" xlink:href="#ArialMT-41"/>
     </g>
    </g>
   </g>
   <g id="matplotlib.axis_6">
    <g id="ytick_7">
     <g id="line2d_42">
      <g>
       <use style="stroke:#000000;stroke-width:0.8;" x="60.448768" xlink:href="#m0faeaca06c" y="588.909395"/>
      </g>
     </g>
     <g id="text_32">
      <!-- 0 -->
      <g transform="translate(46.219549 593.561973)scale(0.13 -0.13)">
       <use xlink:href="#ArialMT-48"/>
      </g>
     </g>
    </g>
    <g id="ytick_8">
     <g id="line2d_43">
      <g>
       <use style="stroke:#000000;stroke-width:0.8;" x="60.448768" xlink:href="#m0faeaca06c" y="530.910198"/>
      </g>
     </g>
     <g id="text_33">
      <!-- 20 -->
      <g transform="translate(38.990331 535.562776)scale(0.13 -0.13)">
       <use xlink:href="#ArialMT-50"/>
       <use x="55.615234" xlink:href="#ArialMT-48"/>
      </g>
     </g>
    </g>
    <g id="ytick_9">
     <g id="line2d_44">
      <g>
       <use style="stroke:#000000;stroke-width:0.8;" x="60.448768" xlink:href="#m0faeaca06c" y="472.911001"/>
      </g>
     </g>
     <g id="text_34">
      <!-- 40 -->
      <g transform="translate(38.990331 477.563579)scale(0.13 -0.13)">
       <use xlink:href="#ArialMT-52"/>
       <use x="55.615234" xlink:href="#ArialMT-48"/>
      </g>
     </g>
    </g>
    <g id="text_35">
     <!-- $f^{\alpha_b}$ (vol.%) -->
     <defs>
      <path d="M 4.09375 42.796875 
L 13.40625 42.796875 
Q 17.296875 55.40625 20.59375 60.09375 
Q 26 67.796875 33.796875 67.796875 
Q 37.5 67.796875 39.953125 66.046875 
Q 42.40625 64.296875 42.40625 61.59375 
Q 42.40625 59.90625 41.15625 58.59375 
Q 39.90625 57.296875 38.203125 57.296875 
Q 36.796875 57.296875 35.640625 58.390625 
Q 34.5 59.5 34.5 61.203125 
Q 34.5 62.203125 35 63.09375 
Q 35.5 64 35.5 64.296875 
Q 35.5 65.59375 33.296875 65.59375 
Q 29.09375 65.59375 26.1875 60.140625 
Q 23.296875 54.703125 21.09375 42.796875 
L 31.796875 42.796875 
L 31.203125 39.59375 
L 20.40625 39.59375 
L 13.203125 7.59375 
Q 6.796875 -20.703125 -6.796875 -20.703125 
Q -10.203125 -20.703125 -12.453125 -18.953125 
Q -14.703125 -17.203125 -14.703125 -14.59375 
Q -14.703125 -12.90625 -13.59375 -11.65625 
Q -12.5 -10.40625 -10.90625 -10.40625 
Q -9.203125 -10.40625 -8.140625 -11.453125 
Q -7.09375 -12.5 -7.09375 -14.09375 
Q -7.09375 -14.796875 -7.546875 -15.640625 
Q -8 -16.5 -8 -17 
Q -8 -18.59375 -6 -18.59375 
Q 0.203125 -18.59375 3.703125 -2.40625 
L 12.5 39.59375 
L 3.40625 39.59375 
z
" id="STIXGeneral-Italic-102"/>
      <path d="M 16.296875 29 
L 16.40625 29 
Q 21.40625 37.296875 25.84375 40.6875 
Q 30.296875 44.09375 35.703125 44.09375 
Q 40.90625 44.09375 44.09375 40.890625 
Q 47.296875 37.703125 47.296875 32.09375 
Q 47.296875 24.40625 42.59375 16.59375 
Q 37.90625 8.796875 30.34375 3.84375 
Q 22.796875 -1.09375 15.296875 -1.09375 
Q 10.703125 -1.09375 6.5 0.5 
Q 2.296875 2.09375 2.296875 4.203125 
L 2.296875 4.796875 
L 16.5 57.09375 
Q 17.40625 60.703125 17.40625 61.796875 
Q 17.40625 63.40625 16.453125 63.75 
Q 15.5 64.09375 11 64.296875 
L 11 66 
Q 18.5 66.90625 26.296875 68.296875 
L 26.796875 67.796875 
L 24.703125 59.59375 
z
M 38.796875 30.59375 
Q 38.796875 39.203125 31.796875 39.203125 
Q 24.90625 39.203125 18.09375 27.703125 
Q 14.90625 22.296875 12.90625 15.75 
Q 10.90625 9.203125 10.90625 4.59375 
Q 10.90625 1.203125 15.5 1.203125 
Q 22.09375 1.203125 27.796875 7.09375 
Q 32.40625 11.90625 35.59375 18.546875 
Q 38.796875 25.203125 38.796875 30.59375 
z
" id="STIXGeneral-Italic-98"/>
      <path d="M 21 0 
L 1.265625 51.859375 
L 10.546875 51.859375 
L 21.6875 20.796875 
Q 23.484375 15.765625 25 10.359375 
Q 26.171875 14.453125 28.265625 20.21875 
L 39.796875 51.859375 
L 48.828125 51.859375 
L 29.203125 0 
z
" id="ArialMT-118"/>
     </defs>
     <g transform="translate(32.130331 546.564375)rotate(-90)scale(0.13 -0.13)">
      <use transform="translate(0 0.203125)" xlink:href="#STIXGeneral-Italic-102"/>
      <use transform="translate(38.950769 35.478125)scale(0.7)" xlink:href="#STIXGeneral-Italic-945"/>
      <use transform="translate(77.590767 26.218438)scale(0.49)" xlink:href="#STIXGeneral-Italic-98"/>
      <use transform="translate(109.586697 0.203125)" xlink:href="#ArialMT-32"/>
      <use transform="translate(137.3699 0.203125)" xlink:href="#ArialMT-40"/>
      <use transform="translate(170.670681 0.203125)" xlink:href="#ArialMT-118"/>
      <use transform="translate(220.670681 0.203125)" xlink:href="#ArialMT-111"/>
      <use transform="translate(276.285916 0.203125)" xlink:href="#ArialMT-108"/>
      <use transform="translate(298.502713 0.203125)" xlink:href="#ArialMT-46"/>
      <use transform="translate(326.285916 0.203125)" xlink:href="#ArialMT-37"/>
      <use transform="translate(415.201931 0.203125)" xlink:href="#ArialMT-41"/>
     </g>
    </g>
   </g>
   <g id="line2d_45">
    <path clip-path="url(#p480984fd51)" d="M 61.330591 588.907442 
L 61.870352 585.110419 
L 62.85995 579.688645 
L 64.155905 573.838485 
L 65.725157 567.76859 
L 67.611785 561.369702 
L 69.723223 554.986007 
L 72.057264 548.615594 
L 74.422162 542.779053 
L 76.568863 538.035438 
L 78.583324 534.1134 
L 80.472156 530.922855 
L 82.248585 528.334149 
L 84.229985 525.862211 
L 86.394319 523.568991 
L 88.637996 521.524104 
L 91.564915 519.193893 
L 96.058882 516.030005 
L 100.819533 512.925799 
L 123.291572 498.296285 
L 129.059453 494.092787 
L 133.731945 490.39964 
L 138.051795 486.700758 
L 141.732484 483.263328 
L 144.994412 479.917099 
L 147.815539 476.712619 
L 150.306065 473.549497 
L 152.42191 470.503902 
L 154.273274 467.448238 
L 155.727918 464.625437 
L 156.85196 461.970678 
L 157.799683 459.149488 
L 158.196404 458.069708 
L 160.73101 457.856668 
L 165.734102 457.675419 
L 175.255405 457.595364 
L 226.674848 457.584009 
L 326.714649 457.584009 
L 326.714649 457.584009 
" style="fill:none;stroke:#1f77b4;stroke-linecap:square;"/>
   </g>
   <g id="line2d_46">
    <path clip-path="url(#p480984fd51)" d="M 61.330591 588.907442 
L 61.866384 585.150465 
L 62.917034 579.515897 
L 63.997217 574.681202 
L 65.568673 568.560308 
L 67.422241 562.233325 
L 69.55131 555.761437 
L 71.8567 549.443053 
L 74.252453 543.518716 
L 76.388135 538.810476 
L 78.332067 535.049591 
L 80.104088 532.083691 
L 81.787948 529.667788 
L 83.458584 527.626809 
L 85.508309 525.474476 
L 87.469873 523.738601 
L 89.607758 522.143635 
L 92.010124 520.630821 
L 94.787171 519.145762 
L 98.181339 517.58658 
L 102.52323 515.837603 
L 108.980965 513.483406 
L 140.806802 502.107507 
L 151.055426 498.108093 
L 160.73101 494.100854 
L 169.10623 490.409773 
L 177.040649 486.682599 
L 184.335907 483.010782 
L 190.529161 479.656025 
L 196.061215 476.423938 
L 200.976147 473.313172 
L 205.428237 470.242838 
L 209.395447 467.2375 
L 212.877775 464.325595 
L 215.831142 461.567797 
L 218.343708 458.919275 
L 220.503634 456.316133 
L 222.200718 453.927446 
L 223.677401 451.834527 
L 226.278127 451.574068 
L 230.443698 451.387751 
L 238.179756 451.297141 
L 266.280824 451.280799 
L 326.714649 451.280799 
L 326.714649 451.280799 
" style="fill:none;stroke:#ff7f0e;stroke-linecap:square;"/>
   </g>
   <g id="line2d_47">
    <path clip-path="url(#p480984fd51)" d="M 61.330392 588.90918 
L 62.174284 583.418091 
L 63.285323 577.824196 
L 64.700294 571.836715 
L 66.419419 565.546663 
L 68.369963 559.240455 
L 70.587193 552.806036 
L 73.254039 545.680852 
L 75.391924 540.579697 
L 77.243289 536.706308 
L 78.940373 533.652012 
L 80.527257 531.239952 
L 82.07006 529.293857 
L 83.590824 527.729596 
L 85.133628 526.460349 
L 86.742552 525.427 
L 88.461676 524.58898 
L 90.37916 523.905197 
L 92.583166 523.359225 
L 95.250012 522.933725 
L 98.73234 522.618195 
L 103.669312 522.411864 
L 112.110653 522.30528 
L 140.454161 522.281307 
L 326.714649 522.308028 
L 326.714649 522.308028 
" style="fill:none;stroke:#2ca02c;stroke-linecap:square;"/>
   </g>
   <g id="line2d_48">
    <path clip-path="url(#p480984fd51)" d="M 61.330392 588.90918 
L 62.163264 583.500912 
L 63.634658 576.35224 
L 65.009737 570.802074 
L 66.76126 564.657949 
L 67.766947 561.752224 
L 68.674557 559.859132 
L 69.418629 558.827086 
L 70.340344 558.006625 
L 71.541527 557.267899 
L 74.38249 555.872939 
L 76.824528 554.865076 
L 78.803724 554.278012 
L 80.549297 553.978242 
L 82.389641 553.8813 
L 84.351206 553.992228 
L 86.575047 554.3207 
L 90.262348 555.144735 
L 105.741077 558.910338 
L 112.132693 560.098271 
L 119.009189 561.148051 
L 126.855448 562.119043 
L 136.06819 563.022042 
L 146.294775 563.798175 
L 158.725365 564.506085 
L 173.095479 565.094184 
L 191.278523 565.59783 
L 215.831142 566.010337 
L 246.643137 566.283746 
L 290.546922 566.451571 
L 326.714649 566.505933 
L 326.714649 566.505933 
" style="fill:none;stroke:#d62728;stroke-linecap:square;"/>
   </g>
   <g id="line2d_49">
    <path clip-path="url(#p480984fd51)" d="M 61.330392 588.90918 
L 62.099568 583.978522 
L 63.07462 579.051201 
L 64.151497 574.505935 
L 64.81314 572.522591 
L 65.598867 570.914755 
L 66.439255 569.661726 
L 67.620601 568.278305 
L 69.317686 566.629291 
L 71.90078 564.421195 
L 74.796843 562.231634 
L 76.890648 560.920246 
L 78.80152 559.991632 
L 80.652885 559.355643 
L 82.446945 558.974187 
L 84.445978 558.784838 
L 86.572843 558.799372 
L 89.519598 559.070977 
L 93.420688 559.674045 
L 107.350001 562.073373 
L 114.623219 563.074279 
L 122.733958 563.973803 
L 131.81446 564.76578 
L 142.261445 565.464023 
L 154.339394 566.062646 
L 168.99603 566.576779 
L 187.752115 567.008297 
L 209.946448 567.315135 
L 245.034213 567.558303 
L 310.735611 567.700573 
L 326.714649 567.712075 
L 326.714649 567.712075 
" style="fill:none;stroke:#9467bd;stroke-linecap:square;"/>
   </g>
   <g id="line2d_50">
    <path clip-path="url(#p480984fd51)" d="M 61.330392 588.90927 
L 61.739875 586.53548 
L 62.344213 583.691642 
L 63.620332 578.735124 
L 64.922899 574.478942 
L 66.611167 569.665966 
L 68.458123 564.999907 
L 70.873713 559.531168 
L 73.51852 554.06083 
L 76.383727 548.636188 
L 79.579534 543.068955 
L 83.017783 537.527896 
L 86.610311 532.134628 
L 90.886081 526.145044 
L 95.029611 520.706379 
L 99.173141 515.571346 
L 104.220314 509.675957 
L 109.201366 504.215568 
L 113.388976 499.894339 
L 117.554546 495.84612 
L 121.698076 492.078859 
L 125.709365 488.691552 
L 129.698615 485.585079 
L 133.621744 482.790813 
L 137.522834 480.269857 
L 141.468003 477.978587 
L 145.545413 475.874932 
L 149.710983 473.989514 
L 153.413712 472.522523 
L 157.623362 471.074405 
L 162.450134 469.673835 
L 166.858144 468.608271 
L 171.222075 467.726771 
L 176.665968 466.832747 
L 182.925343 466.035792 
L 190.330801 465.340832 
L 198.485621 464.804787 
L 208.381604 464.377012 
L 221.186875 464.052405 
L 237.805075 463.843042 
L 268.154228 463.713174 
L 326.714649 463.677152 
L 326.714649 463.677152 
" style="fill:none;stroke:#8c564b;stroke-linecap:square;"/>
   </g>
   <g id="patch_14">
    <path d="M 60.448768 590.359375 
L 60.448768 444.399375 
" style="fill:none;stroke:#000000;stroke-linecap:square;stroke-linejoin:miter;stroke-width:0.8;"/>
   </g>
   <g id="patch_15">
    <path d="M 326.692609 590.359375 
L 326.692609 444.399375 
" style="fill:none;stroke:#000000;stroke-linecap:square;stroke-linejoin:miter;stroke-width:0.8;"/>
   </g>
   <g id="patch_16">
    <path d="M 60.448768 590.359375 
L 326.692609 590.359375 
" style="fill:none;stroke:#000000;stroke-linecap:square;stroke-linejoin:miter;stroke-width:0.8;"/>
   </g>
   <g id="patch_17">
    <path d="M 60.448768 444.399375 
L 326.692609 444.399375 
" style="fill:none;stroke:#000000;stroke-linecap:square;stroke-linejoin:miter;stroke-width:0.8;"/>
   </g>
   <g id="text_36">
    <!-- c) -->
    <defs>
     <path d="M 40.4375 19 
L 49.078125 17.875 
Q 47.65625 8.9375 41.8125 3.875 
Q 35.984375 -1.171875 27.484375 -1.171875 
Q 16.84375 -1.171875 10.375 5.78125 
Q 3.90625 12.75 3.90625 25.734375 
Q 3.90625 34.125 6.6875 40.421875 
Q 9.46875 46.734375 15.15625 49.875 
Q 20.84375 53.03125 27.546875 53.03125 
Q 35.984375 53.03125 41.359375 48.75 
Q 46.734375 44.484375 48.25 36.625 
L 39.703125 35.296875 
Q 38.484375 40.53125 35.375 43.15625 
Q 32.28125 45.796875 27.875 45.796875 
Q 21.234375 45.796875 17.078125 41.03125 
Q 12.9375 36.28125 12.9375 25.984375 
Q 12.9375 15.53125 16.9375 10.796875 
Q 20.953125 6.0625 27.390625 6.0625 
Q 32.5625 6.0625 36.03125 9.234375 
Q 39.5 12.40625 40.4375 19 
z
" id="ArialMT-99"/>
    </defs>
    <g transform="translate(7.2 444.399375)scale(0.2 -0.2)">
     <use xlink:href="#ArialMT-99"/>
     <use x="50" xlink:href="#ArialMT-41"/>
    </g>
   </g>
  </g>
 </g>
 <defs>
  <clipPath id="pcfb37c98a0">
   <rect height="145.96" width="266.243841" x="60.448768" y="21.759375"/>
  </clipPath>
  <clipPath id="pfd2a3c7010">
   <rect height="145.96" width="266.243841" x="60.448768" y="233.079375"/>
  </clipPath>
  <clipPath id="p480984fd51">
   <rect height="145.96" width="266.243841" x="60.448768" y="444.399375"/>
  </clipPath>
 </defs>
</svg>
